<svg width="24" height="24" viewBox="0 0 24 24" fill="none" xmlns="http://www.w3.org/2000/svg">
<g clip-path="url(#clip0_123_12)">
<path d="M18.0003 0.857117H6.00028C3.15996 0.857117 0.857422 3.15965 0.857422 5.99997V18C0.857422 20.8403 3.15996 23.1428 6.00028 23.1428H18.0003C20.8406 23.1428 23.1431 20.8403 23.1431 18V5.99997C23.1431 3.15965 20.8406 0.857117 18.0003 0.857117Z" stroke="white" stroke-linecap="round" stroke-linejoin="round"/>
<path d="M6.85742 13.7143L10.3717 16.5257C10.4661 16.6034 10.5766 16.6591 10.6952 16.6888C10.8138 16.7184 10.9376 16.7213 11.0574 16.6971C11.1784 16.6744 11.2931 16.6259 11.3937 16.5549C11.4943 16.4839 11.5784 16.3921 11.6403 16.2857L17.1431 6.85712" stroke="white" stroke-linecap="round" stroke-linejoin="round"/>
</g>
<defs>
<clipPath id="clip0_123_12">
<rect width="24" height="24" fill="white"/>
</clipPath>
</defs>
</svg>
