<svg width="45" height="45" viewBox="0 0 45 45" fill="none" xmlns="http://www.w3.org/2000/svg">
<path d="M22.5 37.5C23.25 37.5 23.8125 37.5 24.5625 37.3125C24.75 38.625 25.125 39.9375 25.6875 40.875C24.75 41.0625 23.625 41.25 22.5 41.25C12.1875 41.25 3.75 32.8125 3.75 22.5C3.75 12.1875 12.1875 3.75 22.5 3.75C32.8125 3.75 41.25 12.1875 41.25 22.5C41.25 23.4375 41.1 24.3188 40.95 25.3125L40.875 25.6875C39.75 25.125 38.625 24.75 37.3125 24.5625C37.5 23.8125 37.5 23.25 37.5 22.5C37.5 14.25 30.75 7.5 22.5 7.5C14.25 7.5 7.5 14.25 7.5 22.5C7.5 30.75 14.25 37.5 22.5 37.5ZM23.4375 23.0625L29.25 26.4375C28.5 27 27.75 27.5625 27.1875 28.3125L20.625 24.375V13.125H23.4375V23.0625ZM33.2625 33.2812L35.625 28.125L37.9688 33.2812L43.125 35.625L37.9688 37.9875L35.625 43.125L33.2625 37.9875L28.125 35.625L33.2625 33.2812Z" fill="#DC6A00"/>
</svg>
