<svg width="45" height="45" viewBox="0 0 45 45" fill="none" xmlns="http://www.w3.org/2000/svg">
<path d="M9.40688 23.4375H15C15.175 23.4375 15.335 23.4812 15.48 23.5687C15.625 23.6562 15.7394 23.7875 15.8231 23.9625L18.75 29.7506L25.4288 16.4662C25.6038 16.1075 25.8838 15.9281 26.2688 15.9281C26.6525 15.9281 26.9325 16.1075 27.1088 16.4662L30.5963 23.4394H35.5931C35.3644 20.0119 33.9894 17.1238 31.4681 14.775C28.9469 12.4263 25.9575 11.2512 22.5 11.25C19.0425 11.2488 16.0531 12.4231 13.5319 14.7731C11.0106 17.1231 9.63563 20.0113 9.40688 23.4375ZM22.5 37.5C25.9575 37.5 28.9469 36.3256 31.4681 33.9769C33.9894 31.6281 35.3644 28.74 35.5931 25.3125H30C29.825 25.3125 29.665 25.2688 29.52 25.1813C29.375 25.0938 29.2606 24.9625 29.1769 24.7875L26.25 19.0012L19.5731 32.3194C19.3969 32.6781 19.1169 32.8512 18.7331 32.8387C18.3494 32.8262 18.0687 32.6413 17.8912 32.2838L14.4038 25.3125H9.40875C9.6375 28.74 11.0125 31.6281 13.5337 33.9769C16.055 36.3256 19.0437 37.5 22.5 37.5ZM22.5 39.375C20.4275 39.375 18.4819 38.9838 16.6631 38.2013C14.8444 37.4188 13.2538 36.3463 11.8913 34.9838C10.5287 33.6213 9.45625 32.03 8.67375 30.21C7.89125 28.39 7.5 26.445 7.5 24.375H9.375C9.375 28 10.6563 31.0938 13.2188 33.6563C15.7813 36.2188 18.875 37.5 22.5 37.5C26.125 37.5 29.2188 36.2188 31.7813 33.6563C34.3438 31.0938 35.625 28 35.625 24.375H37.5C37.5 26.4475 37.1088 28.3931 36.3263 30.2119C35.5438 32.0306 34.4713 33.6213 33.1088 34.9838C31.7463 36.3463 30.155 37.4188 28.335 38.2013C26.515 38.9838 24.57 39.375 22.5 39.375ZM7.5 24.375C7.5 22.3025 7.89125 20.3569 8.67375 18.5381C9.45625 16.7194 10.5287 15.1288 11.8913 13.7663C13.2538 12.4037 14.845 11.3312 16.665 10.5487C18.485 9.76625 20.43 9.375 22.5 9.375C24.3175 9.375 26.075 9.7 27.7725 10.35C29.47 11 31.0275 11.9181 32.445 13.1044L34.4925 11.055L35.82 12.3825L33.7725 14.43C34.96 15.8488 35.8781 17.4069 36.5269 19.1044C37.1756 20.8019 37.5 22.5587 37.5 24.375H35.625C35.625 20.75 34.3438 17.6563 31.7813 15.0938C29.2188 12.5313 26.125 11.25 22.5 11.25C18.875 11.25 15.7813 12.5313 13.2188 15.0938C10.6563 17.6563 9.375 20.75 9.375 24.375H7.5ZM17.5969 4.6875V2.8125H27.4031V4.6875H17.5969ZM22.5 37.5C18.875 37.5 15.7813 36.2188 13.2188 33.6563C10.6563 31.0938 9.375 28 9.375 24.375C9.375 20.75 10.6563 17.6563 13.2188 15.0938C15.7813 12.5313 18.875 11.25 22.5 11.25C26.125 11.25 29.2188 12.5313 31.7813 15.0938C34.3438 17.6563 35.625 20.75 35.625 24.375C35.625 28 34.3438 31.0938 31.7813 33.6563C29.2188 36.2188 26.125 37.5 22.5 37.5Z" fill="#DC6A00"/>
</svg>
