<svg width="32" height="32" viewBox="0 0 32 32" fill="none" xmlns="http://www.w3.org/2000/svg">
<path d="M9.48009 11.3733L7.60009 9.48001C6.40009 11.0267 5.65342 12.8133 5.42676 14.6667H8.12009C8.30676 13.5067 8.77342 12.3733 9.48009 11.3733ZM8.12009 17.3333H5.42676C5.65342 19.1867 6.38676 20.9733 7.58676 22.52L9.46676 20.6267C8.77342 19.6267 8.30676 18.5067 8.12009 17.3333ZM9.46676 24.4267C11.0134 25.6267 12.8134 26.3467 14.6668 26.5733V23.8667C13.5068 23.6667 12.3868 23.2133 11.3868 22.4933L9.46676 24.4267ZM17.3334 5.42668V1.33334L11.2668 7.40001L17.3334 13.3333V8.12001C21.1201 8.76001 24.0001 12.04 24.0001 16C24.0001 19.96 21.1201 23.24 17.3334 23.88V26.5733C22.6001 25.92 26.6668 21.44 26.6668 16C26.6668 10.56 22.6001 6.08001 17.3334 5.42668Z" fill="white"/>
</svg>
