<svg width="45" height="45" viewBox="0 0 45 45" fill="none" xmlns="http://www.w3.org/2000/svg">
<path d="M26.25 15.9375C25.5041 15.9375 24.7887 16.2338 24.2613 16.7613C23.7338 17.2887 23.4375 18.0041 23.4375 18.75C23.4375 19.4959 23.7338 20.2113 24.2613 20.7387C24.7887 21.2662 25.5041 21.5625 26.25 21.5625C26.9959 21.5625 27.7113 21.2662 28.2387 20.7387C28.7662 20.2113 29.0625 19.4959 29.0625 18.75C29.0625 18.0041 28.7662 17.2887 28.2387 16.7613C27.7113 16.2338 26.9959 15.9375 26.25 15.9375ZM26.25 23.4375C25.5041 23.4375 24.7887 23.7338 24.2613 24.2613C23.7338 24.7887 23.4375 25.5041 23.4375 26.25C23.4375 26.9959 23.7338 27.7113 24.2613 28.2387C24.7887 28.7662 25.5041 29.0625 26.25 29.0625C26.9959 29.0625 27.7113 28.7662 28.2387 28.2387C28.7662 27.7113 29.0625 26.9959 29.0625 26.25C29.0625 25.5041 28.7662 24.7887 28.2387 24.2613C27.7113 23.7338 26.9959 23.4375 26.25 23.4375ZM18.75 31.875C18.2527 31.875 17.7758 32.0725 17.4242 32.4242C17.0725 32.7758 16.875 33.2527 16.875 33.75C16.875 34.2473 17.0725 34.7242 17.4242 35.0758C17.7758 35.4275 18.2527 35.625 18.75 35.625C19.2473 35.625 19.7242 35.4275 20.0758 35.0758C20.4275 34.7242 20.625 34.2473 20.625 33.75C20.625 33.2527 20.4275 32.7758 20.0758 32.4242C19.7242 32.0725 19.2473 31.875 18.75 31.875ZM18.75 15.9375C18.0041 15.9375 17.2887 16.2338 16.7613 16.7613C16.2338 17.2887 15.9375 18.0041 15.9375 18.75C15.9375 19.4959 16.2338 20.2113 16.7613 20.7387C17.2887 21.2662 18.0041 21.5625 18.75 21.5625C19.4959 21.5625 20.2113 21.2662 20.7387 20.7387C21.2662 20.2113 21.5625 19.4959 21.5625 18.75C21.5625 18.0041 21.2662 17.2887 20.7387 16.7613C20.2113 16.2338 19.4959 15.9375 18.75 15.9375ZM26.25 38.4375C26.0014 38.4375 25.7629 38.5363 25.5871 38.7121C25.4113 38.8879 25.3125 39.1264 25.3125 39.375C25.3125 39.6236 25.4113 39.8621 25.5871 40.0379C25.7629 40.2137 26.0014 40.3125 26.25 40.3125C26.4986 40.3125 26.7371 40.2137 26.9129 40.0379C27.0887 39.8621 27.1875 39.6236 27.1875 39.375C27.1875 39.1264 27.0887 38.8879 26.9129 38.7121C26.7371 38.5363 26.4986 38.4375 26.25 38.4375ZM26.25 31.875C25.7527 31.875 25.2758 32.0725 24.9242 32.4242C24.5725 32.7758 24.375 33.2527 24.375 33.75C24.375 34.2473 24.5725 34.7242 24.9242 35.0758C25.2758 35.4275 25.7527 35.625 26.25 35.625C26.7473 35.625 27.2242 35.4275 27.5758 35.0758C27.9275 34.7242 28.125 34.2473 28.125 33.75C28.125 33.2527 27.9275 32.7758 27.5758 32.4242C27.2242 32.0725 26.7473 31.875 26.25 31.875ZM39.375 25.3125C39.1264 25.3125 38.8879 25.4113 38.7121 25.5871C38.5363 25.7629 38.4375 26.0014 38.4375 26.25C38.4375 26.4986 38.5363 26.7371 38.7121 26.9129C38.8879 27.0887 39.1264 27.1875 39.375 27.1875C39.6236 27.1875 39.8621 27.0887 40.0379 26.9129C40.2137 26.7371 40.3125 26.4986 40.3125 26.25C40.3125 26.0014 40.2137 25.7629 40.0379 25.5871C39.8621 25.4113 39.6236 25.3125 39.375 25.3125ZM33.75 9.375C33.2527 9.375 32.7758 9.57254 32.4242 9.92418C32.0725 10.2758 31.875 10.7527 31.875 11.25C31.875 11.7473 32.0725 12.2242 32.4242 12.5758C32.7758 12.9275 33.2527 13.125 33.75 13.125C34.2473 13.125 34.7242 12.9275 35.0758 12.5758C35.4275 12.2242 35.625 11.7473 35.625 11.25C35.625 10.7527 35.4275 10.2758 35.0758 9.92418C34.7242 9.57254 34.2473 9.375 33.75 9.375ZM33.75 16.875C33.2527 16.875 32.7758 17.0725 32.4242 17.4242C32.0725 17.7758 31.875 18.2527 31.875 18.75C31.875 19.2473 32.0725 19.7242 32.4242 20.0758C32.7758 20.4275 33.2527 20.625 33.75 20.625C34.2473 20.625 34.7242 20.4275 35.0758 20.0758C35.4275 19.7242 35.625 19.2473 35.625 18.75C35.625 18.2527 35.4275 17.7758 35.0758 17.4242C34.7242 17.0725 34.2473 16.875 33.75 16.875ZM33.75 31.875C33.2527 31.875 32.7758 32.0725 32.4242 32.4242C32.0725 32.7758 31.875 33.2527 31.875 33.75C31.875 34.2473 32.0725 34.7242 32.4242 35.0758C32.7758 35.4275 33.2527 35.625 33.75 35.625C34.2473 35.625 34.7242 35.4275 35.0758 35.0758C35.4275 34.7242 35.625 34.2473 35.625 33.75C35.625 33.2527 35.4275 32.7758 35.0758 32.4242C34.7242 32.0725 34.2473 31.875 33.75 31.875ZM33.75 24.375C33.2527 24.375 32.7758 24.5725 32.4242 24.9242C32.0725 25.2758 31.875 25.7527 31.875 26.25C31.875 26.7473 32.0725 27.2242 32.4242 27.5758C32.7758 27.9275 33.2527 28.125 33.75 28.125C34.2473 28.125 34.7242 27.9275 35.0758 27.5758C35.4275 27.2242 35.625 26.7473 35.625 26.25C35.625 25.7527 35.4275 25.2758 35.0758 24.9242C34.7242 24.5725 34.2473 24.375 33.75 24.375ZM18.75 23.4375C18.0041 23.4375 17.2887 23.7338 16.7613 24.2613C16.2338 24.7887 15.9375 25.5041 15.9375 26.25C15.9375 26.9959 16.2338 27.7113 16.7613 28.2387C17.2887 28.7662 18.0041 29.0625 18.75 29.0625C19.4959 29.0625 20.2113 28.7662 20.7387 28.2387C21.2662 27.7113 21.5625 26.9959 21.5625 26.25C21.5625 25.5041 21.2662 24.7887 20.7387 24.2613C20.2113 23.7338 19.4959 23.4375 18.75 23.4375ZM18.75 13.125C19.2473 13.125 19.7242 12.9275 20.0758 12.5758C20.4275 12.2242 20.625 11.7473 20.625 11.25C20.625 10.7527 20.4275 10.2758 20.0758 9.92418C19.7242 9.57254 19.2473 9.375 18.75 9.375C18.2527 9.375 17.7758 9.57254 17.4242 9.92418C17.0725 10.2758 16.875 10.7527 16.875 11.25C16.875 11.7473 17.0725 12.2242 17.4242 12.5758C17.7758 12.9275 18.2527 13.125 18.75 13.125ZM18.75 6.5625C18.9986 6.5625 19.2371 6.46373 19.4129 6.28791C19.5887 6.1121 19.6875 5.87364 19.6875 5.625C19.6875 5.37636 19.5887 5.1379 19.4129 4.96209C19.2371 4.78627 18.9986 4.6875 18.75 4.6875C18.5014 4.6875 18.2629 4.78627 18.0871 4.96209C17.9113 5.1379 17.8125 5.37636 17.8125 5.625C17.8125 5.87364 17.9113 6.1121 18.0871 6.28791C18.2629 6.46373 18.5014 6.5625 18.75 6.5625ZM18.75 38.4375C18.5014 38.4375 18.2629 38.5363 18.0871 38.7121C17.9113 38.8879 17.8125 39.1264 17.8125 39.375C17.8125 39.6236 17.9113 39.8621 18.0871 40.0379C18.2629 40.2137 18.5014 40.3125 18.75 40.3125C18.9986 40.3125 19.2371 40.2137 19.4129 40.0379C19.5887 39.8621 19.6875 39.6236 19.6875 39.375C19.6875 39.1264 19.5887 38.8879 19.4129 38.7121C19.2371 38.5363 18.9986 38.4375 18.75 38.4375ZM5.625 25.3125C5.37636 25.3125 5.1379 25.4113 4.96209 25.5871C4.78627 25.7629 4.6875 26.0014 4.6875 26.25C4.6875 26.4986 4.78627 26.7371 4.96209 26.9129C5.1379 27.0887 5.37636 27.1875 5.625 27.1875C5.87364 27.1875 6.1121 27.0887 6.28791 26.9129C6.46373 26.7371 6.5625 26.4986 6.5625 26.25C6.5625 26.0014 6.46373 25.7629 6.28791 25.5871C6.1121 25.4113 5.87364 25.3125 5.625 25.3125ZM26.25 6.5625C26.4986 6.5625 26.7371 6.46373 26.9129 6.28791C27.0887 6.1121 27.1875 5.87364 27.1875 5.625C27.1875 5.37636 27.0887 5.1379 26.9129 4.96209C26.7371 4.78627 26.4986 4.6875 26.25 4.6875C26.0014 4.6875 25.7629 4.78627 25.5871 4.96209C25.4113 5.1379 25.3125 5.37636 25.3125 5.625C25.3125 5.87364 25.4113 6.1121 25.5871 6.28791C25.7629 6.46373 26.0014 6.5625 26.25 6.5625ZM26.25 13.125C26.7473 13.125 27.2242 12.9275 27.5758 12.5758C27.9275 12.2242 28.125 11.7473 28.125 11.25C28.125 10.7527 27.9275 10.2758 27.5758 9.92418C27.2242 9.57254 26.7473 9.375 26.25 9.375C25.7527 9.375 25.2758 9.57254 24.9242 9.92418C24.5725 10.2758 24.375 10.7527 24.375 11.25C24.375 11.7473 24.5725 12.2242 24.9242 12.5758C25.2758 12.9275 25.7527 13.125 26.25 13.125ZM39.375 19.6875C39.6236 19.6875 39.8621 19.5887 40.0379 19.4129C40.2137 19.2371 40.3125 18.9986 40.3125 18.75C40.3125 18.5014 40.2137 18.2629 40.0379 18.0871C39.8621 17.9113 39.6236 17.8125 39.375 17.8125C39.1264 17.8125 38.8879 17.9113 38.7121 18.0871C38.5363 18.2629 38.4375 18.5014 38.4375 18.75C38.4375 18.9986 38.5363 19.2371 38.7121 19.4129C38.8879 19.5887 39.1264 19.6875 39.375 19.6875ZM11.25 9.375C10.7527 9.375 10.2758 9.57254 9.92418 9.92418C9.57254 10.2758 9.375 10.7527 9.375 11.25C9.375 11.7473 9.57254 12.2242 9.92418 12.5758C10.2758 12.9275 10.7527 13.125 11.25 13.125C11.7473 13.125 12.2242 12.9275 12.5758 12.5758C12.9275 12.2242 13.125 11.7473 13.125 11.25C13.125 10.7527 12.9275 10.2758 12.5758 9.92418C12.2242 9.57254 11.7473 9.375 11.25 9.375ZM5.625 17.8125C5.37636 17.8125 5.1379 17.9113 4.96209 18.0871C4.78627 18.2629 4.6875 18.5014 4.6875 18.75C4.6875 18.9986 4.78627 19.2371 4.96209 19.4129C5.1379 19.5887 5.37636 19.6875 5.625 19.6875C5.87364 19.6875 6.1121 19.5887 6.28791 19.4129C6.46373 19.2371 6.5625 18.9986 6.5625 18.75C6.5625 18.5014 6.46373 18.2629 6.28791 18.0871C6.1121 17.9113 5.87364 17.8125 5.625 17.8125ZM11.25 16.875C10.7527 16.875 10.2758 17.0725 9.92418 17.4242C9.57254 17.7758 9.375 18.2527 9.375 18.75C9.375 19.2473 9.57254 19.7242 9.92418 20.0758C10.2758 20.4275 10.7527 20.625 11.25 20.625C11.7473 20.625 12.2242 20.4275 12.5758 20.0758C12.9275 19.7242 13.125 19.2473 13.125 18.75C13.125 18.2527 12.9275 17.7758 12.5758 17.4242C12.2242 17.0725 11.7473 16.875 11.25 16.875ZM11.25 31.875C10.7527 31.875 10.2758 32.0725 9.92418 32.4242C9.57254 32.7758 9.375 33.2527 9.375 33.75C9.375 34.2473 9.57254 34.7242 9.92418 35.0758C10.2758 35.4275 10.7527 35.625 11.25 35.625C11.7473 35.625 12.2242 35.4275 12.5758 35.0758C12.9275 34.7242 13.125 34.2473 13.125 33.75C13.125 33.2527 12.9275 32.7758 12.5758 32.4242C12.2242 32.0725 11.7473 31.875 11.25 31.875ZM11.25 24.375C10.7527 24.375 10.2758 24.5725 9.92418 24.9242C9.57254 25.2758 9.375 25.7527 9.375 26.25C9.375 26.7473 9.57254 27.2242 9.92418 27.5758C10.2758 27.9275 10.7527 28.125 11.25 28.125C11.7473 28.125 12.2242 27.9275 12.5758 27.5758C12.9275 27.2242 13.125 26.7473 13.125 26.25C13.125 25.7527 12.9275 25.2758 12.5758 24.9242C12.2242 24.5725 11.7473 24.375 11.25 24.375Z" fill="#DC6A00"/>
</svg>
