<svg width="45" height="45" viewBox="0 0 45 45" fill="none" xmlns="http://www.w3.org/2000/svg">
<path d="M22.5 5.625C22.873 5.625 23.2306 5.77316 23.4944 6.03688C23.7581 6.3006 23.9062 6.65829 23.9062 7.03125V9.84375C23.9062 10.2167 23.7581 10.5744 23.4944 10.8381C23.2306 11.1018 22.873 11.25 22.5 11.25C22.127 11.25 21.7694 11.1018 21.5056 10.8381C21.2419 10.5744 21.0938 10.2167 21.0938 9.84375V7.03125C21.0938 6.65829 21.2419 6.3006 21.5056 6.03688C21.7694 5.77316 22.127 5.625 22.5 5.625ZM22.5 32.3438C25.1107 32.3438 27.6145 31.3066 29.4606 29.4606C31.3066 27.6145 32.3438 25.1107 32.3438 22.5C32.3438 19.8893 31.3066 17.3855 29.4606 15.5394C27.6145 13.6934 25.1107 12.6562 22.5 12.6562C19.8893 12.6562 17.3855 13.6934 15.5394 15.5394C13.6934 17.3855 12.6563 19.8893 12.6562 22.5C12.6563 25.1107 13.6934 27.6145 15.5394 29.4606C17.3855 31.3066 19.8893 32.3438 22.5 32.3438ZM22.5 29.5312C20.6352 29.5312 18.8468 28.7905 17.5282 27.4718C16.2095 26.1532 15.4688 24.3648 15.4688 22.5C15.4688 20.6352 16.2095 18.8468 17.5282 17.5282C18.8468 16.2095 20.6352 15.4688 22.5 15.4688C24.3648 15.4688 26.1532 16.2095 27.4718 17.5282C28.7905 18.8468 29.5312 20.6352 29.5312 22.5C29.5312 24.3648 28.7905 26.1532 27.4718 27.4718C26.1532 28.7905 24.3648 29.5312 22.5 29.5312ZM37.9688 23.9062C38.3417 23.9062 38.6994 23.7581 38.9631 23.4944C39.2268 23.2306 39.375 22.873 39.375 22.5C39.375 22.127 39.2268 21.7694 38.9631 21.5056C38.6994 21.2419 38.3417 21.0938 37.9688 21.0938H35.1562C34.7833 21.0938 34.4256 21.2419 34.1619 21.5056C33.8982 21.7694 33.75 22.127 33.75 22.5C33.75 22.873 33.8982 23.2306 34.1619 23.4944C34.4256 23.7581 34.7833 23.9062 35.1562 23.9062H37.9688ZM22.5 33.75C22.873 33.75 23.2306 33.8982 23.4944 34.1619C23.7581 34.4256 23.9062 34.7833 23.9062 35.1562V37.9688C23.9062 38.3417 23.7581 38.6994 23.4944 38.9631C23.2306 39.2268 22.873 39.375 22.5 39.375C22.127 39.375 21.7694 39.2268 21.5056 38.9631C21.2419 38.6994 21.0938 38.3417 21.0938 37.9688V35.1562C21.0938 34.7833 21.2419 34.4256 21.5056 34.1619C21.7694 33.8982 22.127 33.75 22.5 33.75ZM9.84375 23.9062C10.2167 23.9062 10.5744 23.7581 10.8381 23.4944C11.1018 23.2306 11.25 22.873 11.25 22.5C11.25 22.127 11.1018 21.7694 10.8381 21.5056C10.5744 21.2419 10.2167 21.0938 9.84375 21.0938H7.03125C6.65829 21.0938 6.3006 21.2419 6.03688 21.5056C5.77316 21.7694 5.625 22.127 5.625 22.5C5.625 22.873 5.77316 23.2306 6.03688 23.4944C6.3006 23.7581 6.65829 23.9062 7.03125 23.9062H9.84375ZM10.2558 10.2558C10.5195 9.99215 10.8771 9.84405 11.25 9.84405C11.6229 9.84405 11.9805 9.99215 12.2442 10.2558L13.6505 11.662C13.7848 11.7918 13.8919 11.9469 13.9656 12.1185C14.0393 12.2901 14.0781 12.4746 14.0797 12.6613C14.0814 12.848 14.0458 13.0332 13.9751 13.206C13.9044 13.3789 13.7999 13.5359 13.6679 13.6679C13.5359 13.7999 13.3789 13.9044 13.206 13.9751C13.0332 14.0458 12.848 14.0814 12.6613 14.0797C12.4746 14.0781 12.2901 14.0393 12.1185 13.9656C11.9469 13.8919 11.7918 13.7848 11.662 13.6505L10.2558 12.2442C9.99215 11.9805 9.84405 11.6229 9.84405 11.25C9.84405 10.8771 9.99215 10.5195 10.2558 10.2558ZM12.2442 34.7442C11.979 35.0004 11.6238 35.1421 11.2551 35.1389C10.8863 35.1357 10.5336 34.9878 10.2729 34.7271C10.0122 34.4664 9.86429 34.1137 9.86108 33.7449C9.85788 33.3762 9.99962 33.021 10.2558 32.7558L11.662 31.3495C11.9273 31.0934 12.2825 30.9516 12.6512 30.9548C13.0199 30.958 13.3726 31.1059 13.6333 31.3667C13.8941 31.6274 14.042 31.9801 14.0452 32.3488C14.0484 32.7175 13.9066 33.0727 13.6505 33.338L12.2442 34.7442ZM34.7442 10.2558C34.4805 9.99215 34.1229 9.84405 33.75 9.84405C33.3771 9.84405 33.0195 9.99215 32.7558 10.2558L31.3495 11.662C31.0934 11.9273 30.9516 12.2825 30.9548 12.6512C30.958 13.0199 31.1059 13.3726 31.3667 13.6333C31.6274 13.8941 31.9801 14.042 32.3488 14.0452C32.7175 14.0484 33.0727 13.9066 33.338 13.6505L34.7442 12.2442C35.0079 11.9805 35.1559 11.6229 35.1559 11.25C35.1559 10.8771 35.0079 10.5195 34.7442 10.2558ZM31.3495 33.338L32.7558 34.7442C33.021 35.0004 33.3762 35.1421 33.7449 35.1389C34.1137 35.1357 34.4664 34.9878 34.7271 34.7271C34.9878 34.4664 35.1357 34.1137 35.1389 33.7449C35.1421 33.3762 35.0004 33.021 34.7442 32.7558L33.338 31.3495C33.0727 31.0934 32.7175 30.9516 32.3488 30.9548C31.9801 30.958 31.6274 31.1059 31.3667 31.3667C31.1059 31.6274 30.958 31.9801 30.9548 32.3488C30.9516 32.7175 31.0934 33.0727 31.3495 33.338Z" fill="#DC6A00"/>
</svg>
