<svg width="45" height="45" viewBox="0 0 45 45" fill="none" xmlns="http://www.w3.org/2000/svg">
<path d="M22.5 2.8125C11.6271 2.8125 2.8125 11.6271 2.8125 22.5C2.8125 33.3729 11.6271 42.1875 22.5 42.1875C33.3729 42.1875 42.1875 33.3729 42.1875 22.5C42.1875 11.6271 33.3729 2.8125 22.5 2.8125ZM11.3133 33.6867C9.10074 31.4742 7.59398 28.6553 6.98354 25.5864C6.3731 22.5176 6.68639 19.3366 7.88381 16.4458C9.08122 13.555 11.109 11.0842 13.7106 9.34585C16.3123 7.60749 19.371 6.67966 22.5 6.67969V38.3203C20.4216 38.326 18.3627 37.9194 16.4425 37.1241C14.5223 36.3287 12.7789 35.1604 11.3133 33.6867Z" fill="#DC6A00"/>
</svg>
