<svg width="24" height="24" viewBox="0 0 24 24" fill="none" xmlns="http://www.w3.org/2000/svg">
<g clip-path="url(#clip0_96_51)">
<path d="M10.6914 2.52515C4.37601 2.52515 0 7.57766 0 10.1045C0 12.6302 1.26286 14.5251 3.78857 14.5251C6.31428 14.5251 7.57829 15.1571 7.57829 17.0508C7.57829 19.5777 9.47313 21.4725 12 21.4725C20.2103 21.4725 24 17.0508 24 12.6302C24 5.05077 18.2709 2.52515 10.6914 2.52515ZM9.00571 5.05081C9.21312 5.05081 9.41851 5.0917 9.61013 5.17107C9.80176 5.25044 9.97585 5.36676 10.1225 5.51342C10.2692 5.66009 10.3855 5.83422 10.4649 6.02584C10.5443 6.21747 10.5851 6.42278 10.5851 6.63019C10.5851 6.83761 10.5443 7.04306 10.4649 7.23468C10.3855 7.42631 10.2692 7.60044 10.1225 7.7471C9.97585 7.89376 9.80176 8.01008 9.61013 8.08945C9.41851 8.16883 9.21312 8.20971 9.00571 8.20971C8.58682 8.20971 8.18507 8.0433 7.88887 7.7471C7.59267 7.4509 7.4263 7.04908 7.4263 6.63019C7.4263 6.2113 7.59267 5.80962 7.88887 5.51342C8.18507 5.21722 8.58682 5.05081 9.00571 5.05081ZM14.0583 5.05081C14.2657 5.05081 14.4711 5.0917 14.6627 5.17107C14.8543 5.25044 15.0284 5.36676 15.1751 5.51342C15.3218 5.66009 15.4381 5.83422 15.5175 6.02584C15.5968 6.21747 15.6377 6.42278 15.6377 6.63019C15.6377 6.83761 15.5968 7.04306 15.5175 7.23468C15.4381 7.42631 15.3218 7.60044 15.1751 7.7471C15.0284 7.89376 14.8543 8.01008 14.6627 8.08945C14.4711 8.16883 14.2657 8.20971 14.0583 8.20971C13.6394 8.20971 13.2377 8.0433 12.9415 7.7471C12.6453 7.4509 12.4789 7.04908 12.4789 6.63019C12.4789 6.2113 12.6453 5.80962 12.9415 5.51342C13.2377 5.21722 13.6394 5.05081 14.0583 5.05081ZM18.6308 7.57774C18.8418 7.57206 19.0516 7.60864 19.2482 7.68544C19.4447 7.76223 19.6238 7.87755 19.775 8.02472C19.9262 8.17189 20.0464 8.34792 20.1284 8.5423C20.2105 8.73668 20.2527 8.94557 20.2527 9.15656C20.2527 9.36755 20.2105 9.57643 20.1284 9.77081C20.0464 9.9652 19.9262 10.1411 19.775 10.2883C19.6238 10.4354 19.4447 10.5509 19.2482 10.6277C19.0516 10.7045 18.8418 10.7411 18.6308 10.7354C18.2195 10.7243 17.8286 10.5531 17.5416 10.2583C17.2545 9.96337 17.0939 9.56809 17.0939 9.15656C17.0939 8.74502 17.2545 8.34974 17.5416 8.05486C17.8286 7.75997 18.2195 7.58881 18.6308 7.57774ZM4.58513 7.88047C5.00402 7.88047 5.40577 8.04688 5.70197 8.34308C5.99817 8.63928 6.16458 9.0411 6.16458 9.45999C6.16458 9.87888 5.99817 10.2806 5.70197 10.5768C5.40577 10.873 5.00402 11.0394 4.58513 11.0394C4.16624 11.0394 3.76453 10.873 3.46833 10.5768C3.17213 10.2806 3.00572 9.87888 3.00572 9.45999C3.00572 9.0411 3.17213 8.63928 3.46833 8.34308C3.76453 8.04688 4.16624 7.88047 4.58513 7.88047ZM12.96 15.1571C14.0057 15.1571 14.8549 16.0051 14.8549 17.0508C14.8549 18.0977 13.5257 18.9456 12.48 18.9456C11.9775 18.9456 11.4955 18.746 11.1401 18.3906C10.7848 18.0353 10.5851 17.5533 10.5851 17.0508C10.5851 16.0051 11.9131 15.1571 12.96 15.1571Z" fill="white"/>
</g>
<defs>
<clipPath id="clip0_96_51">
<rect width="24" height="24" fill="white"/>
</clipPath>
</defs>
</svg>
