<svg width="45" height="45" viewBox="0 0 45 45" fill="none" xmlns="http://www.w3.org/2000/svg">
<path d="M19.5072 33.3112C19.5349 33.338 19.5612 33.3661 19.586 33.3956C19.1182 33.2706 18.6591 33.1153 18.2116 32.9306C18.4422 32.8802 18.6817 32.8887 18.9081 32.9552C19.1345 33.0217 19.3405 33.1442 19.5072 33.3112ZM15.8172 31.3218C15.767 31.3721 15.7131 31.4184 15.656 31.4606C14.9186 30.8956 14.2536 30.2419 13.676 29.5143C13.7884 29.3552 13.9327 29.2212 14.0997 29.1208C14.2667 29.0204 14.4527 28.9558 14.6459 28.9311C14.8392 28.9064 15.0355 28.9221 15.2223 28.9772C15.4092 29.0323 15.5826 29.1257 15.7315 29.2514C15.8803 29.3771 16.0015 29.5323 16.0872 29.7073C16.1729 29.8822 16.2214 30.0731 16.2294 30.2678C16.2375 30.4624 16.205 30.6567 16.1341 30.8381C16.0631 31.0196 15.9552 31.1843 15.8172 31.3218ZM11.9454 25.59C12.1464 25.791 12.2817 26.0482 12.3336 26.3277C12.3855 26.6072 12.3515 26.8958 12.236 27.1556C11.97 26.5678 11.7554 25.958 11.5947 25.3331C11.7242 25.4 11.8425 25.4867 11.9454 25.59ZM11.9454 20.0156C11.8059 20.1552 11.6385 20.2638 11.4541 20.3343C11.597 19.6057 11.813 18.8933 12.0991 18.2081C12.291 18.4791 12.3808 18.8091 12.3526 19.14C12.3245 19.4708 12.1802 19.7809 11.9454 20.0156ZM13.8279 16.3256C13.6735 16.1714 13.5573 15.9833 13.4885 15.7762C13.9854 15.1143 14.5535 14.5087 15.1816 13.9706C15.3905 14.0256 15.5839 14.1281 15.7468 14.2699C15.9097 14.4118 16.0377 14.5892 16.121 14.7886C16.2042 14.9879 16.2404 15.2037 16.2267 15.4193C16.2131 15.6349 16.1499 15.8444 16.0422 16.0317C15.9345 16.2189 15.7851 16.3788 15.6056 16.499C15.4261 16.6192 15.2213 16.6964 15.0072 16.7246C14.793 16.7529 14.5752 16.7314 14.3707 16.6619C14.1662 16.5923 13.9804 16.4785 13.8279 16.3256ZM17.5197 12.6881C17.4635 12.6319 17.412 12.5711 17.366 12.5062C18.1747 12.0911 19.031 11.7763 19.916 11.5687C19.9431 11.857 19.8804 12.1467 19.7365 12.3979C19.5926 12.6492 19.3745 12.8499 19.1121 12.9725C18.8498 13.095 18.5559 13.1335 18.2709 13.0826C17.9858 13.0317 17.7235 12.8939 17.5197 12.6881ZM24.9129 33.5118C25.4941 33.3843 26.0566 33.2118 26.6004 33C26.3029 32.8801 25.9733 32.8654 25.6664 32.9585C25.3595 33.0516 25.0936 33.2469 24.9129 33.5118ZM29.1204 31.6125C29.8779 31.0612 30.5641 30.4162 31.1604 29.6943C31.0397 29.5409 30.8884 29.4143 30.7162 29.3225C30.5439 29.2307 30.3545 29.1758 30.1598 29.1612C29.9652 29.1467 29.7697 29.1728 29.5857 29.2379C29.4017 29.3031 29.2333 29.4058 29.0911 29.5395C28.949 29.6733 28.8363 29.8352 28.7601 30.0149C28.684 30.1946 28.6461 30.3882 28.6488 30.5834C28.6516 30.7785 28.6949 30.971 28.7761 31.1485C28.8573 31.326 28.9745 31.4828 29.1204 31.6125ZM32.5591 27.5475C32.9357 26.7952 33.2257 26.0026 33.4235 25.185C33.164 25.2144 32.9178 25.3155 32.7125 25.4769C32.5072 25.6384 32.3509 25.8538 32.2612 26.0991C32.1714 26.3444 32.1518 26.6098 32.2044 26.8656C32.257 27.1214 32.3798 27.3575 32.5591 27.5475ZM33.5454 20.4243C33.3827 19.5626 33.119 18.7231 32.7597 17.9231C32.5377 18.1 32.3744 18.34 32.2914 18.6114C32.2083 18.8829 32.2093 19.1732 32.2943 19.444C32.3794 19.7149 32.5444 19.9537 32.7676 20.129C32.9909 20.3043 33.2621 20.4079 33.5454 20.4262V20.4243ZM31.4172 15.675C30.9325 15.0439 30.3826 14.4657 29.7766 13.95C29.5301 13.9995 29.3013 14.1143 29.1142 14.2824C28.9271 14.4504 28.7885 14.6655 28.7128 14.9053C28.6371 15.1452 28.6271 15.4009 28.6838 15.6459C28.7406 15.8909 28.862 16.1162 29.0354 16.2983C29.2088 16.4804 29.4279 16.6127 29.6698 16.6814C29.9117 16.7501 30.1676 16.7526 30.4109 16.6888C30.6541 16.625 30.8758 16.497 31.0528 16.3184C31.2298 16.1398 31.3556 15.9188 31.4172 15.675ZM27.0691 12.6881C27.1667 12.5907 27.2495 12.4795 27.3147 12.3581C26.4774 11.96 25.5937 11.6678 24.6841 11.4881C24.641 11.7805 24.6912 12.0791 24.8274 12.3415C24.9637 12.6038 25.1792 12.8165 25.4433 12.9493C25.7073 13.0822 26.0066 13.1285 26.2984 13.0816C26.5903 13.0347 26.86 12.897 27.0691 12.6881ZM23.486 14.3362C23.6241 14.465 23.735 14.6202 23.8118 14.7927C23.8887 14.9652 23.93 15.1514 23.9333 15.3402C23.9367 15.5291 23.9019 15.7166 23.8312 15.8917C23.7605 16.0668 23.6552 16.2259 23.5217 16.3594C23.3881 16.493 23.2291 16.5982 23.054 16.669C22.8789 16.7397 22.6913 16.7744 22.5025 16.7711C22.3137 16.7678 22.1275 16.7264 21.955 16.6496C21.7825 16.5727 21.6272 16.4619 21.4985 16.3237C21.2501 16.0571 21.1148 15.7046 21.1213 15.3402C21.1277 14.9759 21.2753 14.6283 21.5329 14.3707C21.7906 14.113 22.1382 13.9654 22.5025 13.959C22.8668 13.9526 23.2194 14.0878 23.486 14.3362ZM19.5072 18.0281C19.6454 18.1568 19.7562 18.3121 19.8331 18.4846C19.9099 18.6571 19.9513 18.8433 19.9546 19.0321C19.9579 19.2209 19.9232 19.4085 19.8525 19.5836C19.7817 19.7587 19.6765 19.9178 19.5429 20.0513C19.4094 20.1848 19.2503 20.2901 19.0752 20.3608C18.9001 20.4316 18.7126 20.4663 18.5237 20.463C18.3349 20.4596 18.1487 20.4183 17.9762 20.3414C17.8037 20.2646 17.6485 20.1538 17.5197 20.0156C17.2713 19.749 17.1361 19.3964 17.1425 19.0321C17.149 18.6678 17.2965 18.3202 17.5542 18.0626C17.8118 17.8049 18.1594 17.6573 18.5237 17.6509C18.8881 17.6445 19.2406 17.7797 19.5072 18.0281ZM15.8172 23.9943C15.9479 23.8637 16.0515 23.7086 16.1222 23.538C16.1929 23.3673 16.2292 23.1844 16.2292 22.9997C16.2292 22.8149 16.1929 22.632 16.1222 22.4613C16.0515 22.2907 15.9479 22.1356 15.8172 22.005C15.6866 21.8743 15.5315 21.7707 15.3609 21.7C15.1902 21.6293 15.0073 21.593 14.8225 21.593C14.6378 21.593 14.4549 21.6293 14.2842 21.7C14.1135 21.7707 13.9585 21.8743 13.8279 22.005C13.5795 22.2716 13.4442 22.6241 13.4506 22.9885C13.4571 23.3528 13.6047 23.7004 13.8623 23.958C14.12 24.2157 14.4676 24.3632 14.8319 24.3697C15.1962 24.3761 15.5488 24.2409 15.8154 23.9925L15.8172 23.9943ZM19.5072 25.59C19.6454 25.7187 19.7562 25.874 19.8331 26.0465C19.9099 26.219 19.9513 26.4052 19.9546 26.594C19.9579 26.7828 19.9232 26.9704 19.8525 27.1455C19.7817 27.3206 19.6765 27.4796 19.5429 27.6132C19.4094 27.7467 19.2503 27.852 19.0752 27.9227C18.9001 27.9934 18.7126 28.0282 18.5237 28.0248C18.3349 28.0215 18.1487 27.9802 17.9762 27.9033C17.8037 27.8265 17.6485 27.7156 17.5197 27.5775C17.2713 27.3109 17.1361 26.9583 17.1425 26.594C17.149 26.2297 17.2965 25.8821 17.5542 25.6244C17.8118 25.3668 18.1594 25.2192 18.5237 25.2128C18.8881 25.2063 19.2406 25.3416 19.5072 25.59ZM23.486 23.9943C23.6166 23.8637 23.7202 23.7086 23.7909 23.538C23.8616 23.3673 23.898 23.1844 23.898 22.9997C23.898 22.8149 23.8616 22.632 23.7909 22.4613C23.7202 22.2907 23.6166 22.1356 23.486 22.005C23.3554 21.8743 23.2003 21.7707 23.0296 21.7C22.8589 21.6293 22.676 21.593 22.4913 21.593C22.3066 21.593 22.1236 21.6293 21.953 21.7C21.7823 21.7707 21.6272 21.8743 21.4966 22.005C21.2482 22.2716 21.113 22.6241 21.1194 22.9885C21.1258 23.3528 21.2734 23.7004 21.5311 23.958C21.7887 24.2157 22.1363 24.3632 22.5006 24.3697C22.8649 24.3761 23.2175 24.2409 23.4841 23.9925L23.486 23.9943ZM27.0691 18.0281C27.2073 18.1568 27.3181 18.3121 27.3949 18.4846C27.4718 18.6571 27.5131 18.8433 27.5165 19.0321C27.5198 19.2209 27.4851 19.4085 27.4143 19.5836C27.3436 19.7587 27.2383 19.9178 27.1048 20.0513C26.9713 20.1848 26.8122 20.2901 26.6371 20.3608C26.462 20.4316 26.2744 20.4663 26.0856 20.463C25.8968 20.4596 25.7106 20.4183 25.5381 20.3414C25.3656 20.2646 25.2103 20.1538 25.0816 20.0156C24.8332 19.749 24.698 19.3964 24.7044 19.0321C24.7108 18.6678 24.8584 18.3202 25.1161 18.0626C25.3737 17.8049 25.7213 17.6573 26.0856 17.6509C26.4499 17.6445 26.8025 17.7797 27.0691 18.0281ZM31.0479 23.94C31.1821 23.8102 31.2892 23.655 31.3628 23.4834C31.4364 23.3118 31.4751 23.1272 31.4766 22.9405C31.4782 22.7538 31.4425 22.5686 31.3717 22.3958C31.3009 22.223 31.1964 22.0661 31.0643 21.9341C30.9322 21.8021 30.7752 21.6978 30.6023 21.6272C30.4295 21.5565 30.2443 21.521 30.0576 21.5227C29.8708 21.5245 29.6863 21.5633 29.5148 21.6371C29.3433 21.7109 29.1881 21.8181 29.0585 21.9525C28.8101 22.2191 28.6748 22.5716 28.6813 22.936C28.6877 23.3003 28.8353 23.6479 29.0929 23.9055C29.3506 24.1632 29.6982 24.3107 30.0625 24.3172C30.4268 24.3236 30.7813 24.1884 31.0479 23.94ZM27.0429 25.6687C27.181 25.7975 27.2918 25.9527 27.3687 26.1252C27.4456 26.2977 27.4869 26.4839 27.4902 26.6727C27.4935 26.8616 27.4588 27.0491 27.3881 27.2242C27.3174 27.3993 27.2121 27.5584 27.0785 27.6919C26.945 27.8255 26.7859 27.9307 26.6108 28.0015C26.4357 28.0722 26.2482 28.1069 26.0594 28.1036C25.8706 28.1003 25.6843 28.0589 25.5118 27.9821C25.3393 27.9052 25.1841 27.7944 25.0554 27.6562C24.807 27.3896 24.6717 27.0371 24.6781 26.6727C24.6846 26.3084 24.8322 25.9608 25.0898 25.7032C25.3475 25.4455 25.6951 25.2979 26.0594 25.2915C26.4237 25.2851 26.7763 25.4203 27.0429 25.6687ZM23.0922 31.3218C23.2304 31.1931 23.3412 31.0379 23.4181 30.8654C23.4949 30.6929 23.5363 30.5066 23.5396 30.3178C23.5429 30.129 23.5082 29.9415 23.4375 29.7664C23.3667 29.5913 23.2615 29.4322 23.1279 29.2987C22.9944 29.1651 22.8353 29.0598 22.6602 28.9891C22.4851 28.9184 22.2976 28.8837 22.1087 28.887C21.9199 28.8903 21.7337 28.9316 21.5612 29.0085C21.3887 29.0854 21.2335 29.1962 21.1047 29.3343C20.8563 29.6009 20.7211 29.9535 20.7275 30.3178C20.734 30.6821 20.8815 31.0297 21.1392 31.2874C21.3968 31.545 21.7444 31.6926 22.1087 31.6991C22.4731 31.7055 22.8256 31.5702 23.0922 31.3218Z" fill="#DC6A00"/>
<path fill-rule="evenodd" clip-rule="evenodd" d="M41.25 22.5C41.25 32.8556 32.8556 41.25 22.5 41.25C12.1444 41.25 3.75 32.8556 3.75 22.5C3.75 12.1444 12.1444 3.75 22.5 3.75C32.8556 3.75 41.25 12.1444 41.25 22.5ZM37.5 22.5C37.5 26.4782 35.9196 30.2936 33.1066 33.1066C30.2936 35.9196 26.4782 37.5 22.5 37.5C18.5218 37.5 14.7064 35.9196 11.8934 33.1066C9.08035 30.2936 7.5 26.4782 7.5 22.5C7.5 18.5218 9.08035 14.7064 11.8934 11.8934C14.7064 9.08035 18.5218 7.5 22.5 7.5C26.4782 7.5 30.2936 9.08035 33.1066 11.8934C35.9196 14.7064 37.5 18.5218 37.5 22.5Z" fill="#DC6A00"/>
</svg>
