<svg width="165" height="165" viewBox="0 0 165 165" fill="none" xmlns="http://www.w3.org/2000/svg">
<path d="M79.5302 8.74915C80.0541 8.90177 80.5986 8.9059 81.1349 8.99665C83.7076 9.44712 86.1747 10.3702 88.4114 11.7191C90.5357 12.9731 92.4002 14.5365 94.0709 16.3433C94.7845 17.1188 95.4486 17.9438 96.022 18.8265C96.1057 18.9779 96.2309 19.1022 96.3829 19.1848C96.535 19.2674 96.7074 19.3048 96.88 19.2926C99.0584 19.2773 101.222 19.6502 103.27 20.394C105.811 21.2825 108.153 22.6616 110.162 24.453C112.3 26.3416 114.034 28.6427 115.261 31.218C116.226 33.2186 116.845 35.3306 117.121 37.5375C117.249 38.5523 117.344 39.5711 117.307 40.5941C117.2 45.5135 115.394 50.2442 112.196 53.9839C110.798 55.6313 109.141 57.0411 107.291 58.1584C106.974 58.3481 106.867 58.575 106.854 58.9298C106.768 61.116 106.722 63.3023 106.648 65.4885C106.615 66.495 106.611 67.5015 106.565 68.5039C106.471 70.5953 106.438 72.6866 106.359 74.7739C106.322 75.8258 106.314 76.8818 106.277 77.9336C106.26 78.3956 106.186 78.8535 106.194 79.3196C106.207 79.9136 106.227 79.9384 106.788 79.8064C107.584 79.6208 108.389 79.4805 109.21 79.5259C111.474 79.6496 113.467 80.421 115.145 81.9844C116.581 83.325 117.509 84.942 117.926 86.8601C118.025 87.3304 118.095 87.8006 118.095 88.2833C118.087 90.4901 118.124 92.697 118.062 94.8998C118.025 96.2074 118.037 97.5191 117.975 98.8268C117.897 100.596 117.86 102.37 117.781 104.14C117.724 105.48 117.658 106.817 117.592 108.158C117.513 109.688 117.431 111.218 117.307 112.745C117.163 114.527 117.035 116.309 116.87 118.086C116.658 120.439 116.393 122.787 116.074 125.128C115.682 127.912 115.22 130.684 114.448 133.398C114.124 134.57 113.691 135.708 113.153 136.797C112.001 139.169 110.686 141.459 109.218 143.649C108.393 144.845 107.489 145.984 106.524 147.073C105.171 148.586 103.643 149.934 101.974 151.091C100.278 152.266 98.4436 153.228 96.5129 153.957C94.073 154.877 91.534 155.508 88.9476 155.838C87.7307 156.003 86.5097 156.152 85.2764 156.16C85.1155 156.16 84.9546 156.16 84.8102 156.247H79.7282C79.5991 156.183 79.4553 156.154 79.3116 156.164C78.7382 156.156 78.1649 156.115 77.5915 156.082C76.0136 155.982 74.4415 155.806 72.8807 155.554C68.0504 154.774 63.4304 153.355 59.1197 150.992C55.9528 149.249 53.021 147.111 50.3954 144.627C49.609 143.879 48.8428 143.11 48.0977 142.321C47.0657 141.229 46.083 140.093 45.1525 138.914C44.1117 137.597 43.1116 136.249 42.1536 134.871C40.5214 132.578 39.1593 130.105 38.0946 127.5C36.7141 124.087 35.8695 120.482 35.5907 116.812C35.5866 116.523 35.5278 116.237 35.4175 115.97V111.845C35.5124 111.689 35.5247 111.511 35.5454 111.338C35.6279 110.608 35.6897 109.878 35.7887 109.148C36.2205 105.649 37.2753 102.255 38.9031 99.1279C40.021 97.0241 41.407 95.1266 43.1972 93.5344C44.7524 92.1484 46.3694 90.8531 48.172 89.8013C48.4649 89.6321 48.5639 89.4259 48.5556 89.1041C48.535 88.3863 48.5102 87.6685 48.4814 86.9509C48.4154 85.3875 48.4731 83.82 48.3824 82.2566C48.2999 80.8541 48.3741 79.4475 48.2916 78.0409C48.2009 76.4775 48.2834 74.91 48.1885 73.3466C48.106 71.9441 48.1555 70.5375 48.106 69.1309C48.0441 67.2794 48.007 65.4271 47.9946 63.5745C47.9781 61.4831 47.8379 59.3918 47.8791 57.2963L47.875 57.1519C47.8832 56.9209 47.7842 56.7641 47.5821 56.6445C45.6246 55.4576 43.871 53.9631 42.3887 52.2184C41.2541 50.893 40.2985 49.4244 39.5466 47.85C38.4693 45.6298 37.8093 43.2304 37.5996 40.7715C37.2658 37.3668 37.7979 33.933 39.1465 30.789C40.3459 27.9513 42.1623 25.4163 44.4636 23.3681C46.7241 21.348 49.4012 19.8496 52.3052 18.9791C54.9452 18.1748 57.643 18.0263 60.3696 18.1789C60.7326 18.1995 60.9306 18.1129 61.1162 17.8241C61.6221 17.0469 62.1949 16.3154 62.8281 15.6379C64.3305 13.9735 66.0893 12.56 68.038 11.451C70.3613 10.1202 72.9232 9.25823 75.5785 8.91415C75.9704 8.86465 76.3787 8.89765 76.7582 8.74915H79.5302ZM48.6546 95.1803C48.403 95.2174 48.2999 95.3246 48.1926 95.4113C47.5532 95.9393 46.9015 96.459 46.2827 97.0118C44.1212 98.9588 42.6404 101.355 41.6669 104.082C40.6686 106.883 40.3139 109.791 40.2231 112.74C40.2025 113.363 40.285 113.986 40.2974 114.605C40.3304 116.061 40.5077 117.505 40.7511 118.936C41.1471 121.259 41.7246 123.531 42.562 125.734C43.0859 127.108 43.6757 128.453 44.4017 129.735C45.1566 131.076 46.0476 132.326 46.9386 133.572C48.3411 135.535 49.8591 137.412 51.5091 139.173C52.8002 140.547 54.1656 141.846 55.6259 143.047C57.7585 144.8 60.052 146.306 62.527 147.527C64.7654 148.63 67.1129 149.497 69.5312 150.113C71.998 150.744 74.5019 151.14 77.0387 151.363C78.8867 151.528 80.7389 151.544 82.5869 151.614C83.1107 151.635 83.6387 151.544 84.1667 151.548C85.3217 151.557 86.4644 151.454 87.607 151.317C90.0408 151.058 92.4334 150.499 94.7309 149.655C97.1645 148.751 99.4083 147.401 101.347 145.674C102.867 144.3 104.214 142.748 105.361 141.05C106.607 139.223 107.663 137.292 108.686 135.337C109.222 134.314 109.663 133.254 109.985 132.144C110.761 129.451 111.19 126.687 111.561 123.915C111.759 122.426 111.936 120.937 112.072 119.444C112.18 118.218 112.316 116.997 112.415 115.772C112.501 114.708 112.559 113.64 112.633 112.571C112.72 111.33 112.831 110.088 112.893 108.846C112.951 107.634 113.025 106.425 113.079 105.212C113.153 103.587 113.19 101.958 113.277 100.332C113.33 99.3135 113.31 98.2905 113.359 97.2675C113.442 95.6423 113.376 94.0088 113.458 92.3794C113.516 91.1996 113.479 90.0158 113.475 88.8319C113.491 87.8895 113.216 86.965 112.686 86.1852C112.157 85.4054 111.399 84.8084 110.517 84.4759C109.939 84.2363 109.314 84.1346 108.69 84.1789C107.911 84.2762 107.152 84.4962 106.442 84.8306C106.161 84.9503 106.013 85.1276 106.013 85.4494C106.013 86.5673 105.992 87.6851 105.922 88.803C105.872 89.5991 105.897 90.3994 105.835 91.1955C105.818 91.5883 105.697 91.9697 105.487 92.3018C105.276 92.6339 104.983 92.9053 104.635 93.0889C104.176 93.3604 103.63 93.445 103.11 93.3252C102.59 93.2054 102.136 92.8904 101.842 92.4454C101.6 92.0471 101.477 91.5875 101.488 91.1213C101.5 90.1931 101.508 89.2691 101.57 88.3451C101.64 87.2314 101.587 86.1094 101.661 84.9915C101.739 83.8283 101.681 82.6609 101.76 81.4976C101.834 80.4004 101.772 79.2949 101.851 78.1935C101.933 77.0468 101.871 75.8959 101.95 74.745C102.028 73.6148 101.966 72.4804 102.044 71.346C102.127 70.1828 102.061 69.0154 102.143 67.848C102.222 66.7508 102.16 65.6453 102.238 64.5439C102.321 63.3806 102.255 62.2133 102.337 61.0459C102.42 59.9156 102.395 58.7771 102.424 57.6469C102.465 55.9556 102.539 54.2644 102.564 52.569C102.593 50.4446 102.684 48.3244 102.746 46.2C102.758 45.7215 102.746 45.2389 102.779 44.7645C102.869 43.395 102.894 42.0214 102.845 40.6519C102.791 39.1586 102.127 37.8964 101.071 36.8816C99.487 35.3595 97.5647 34.7903 95.4156 35.2523C94.3397 35.455 93.3334 35.9288 92.4917 36.629C91.6501 37.3292 91.001 38.2325 90.6059 39.2535C90.3391 39.9574 90.2008 40.7035 90.1975 41.4563C90.1521 42.5576 90.1274 43.659 90.0737 44.7604C89.9954 46.3691 89.8716 47.9779 89.8221 49.5908C89.7891 50.6303 89.719 51.6656 89.6819 52.701C89.6592 53.419 89.6303 54.1368 89.5952 54.8543C89.5375 55.9061 89.4632 56.958 89.4302 58.0099C89.389 59.2391 89.4261 60.4684 89.356 61.6976C89.2652 63.2569 89.224 64.8244 89.158 66.3878L88.9682 71.0779C88.9022 72.6908 88.8321 74.2995 88.7785 75.9124C88.7414 77.0633 88.663 78.21 88.6465 79.3609C88.6583 79.9559 88.5132 80.5435 88.2257 81.0645C87.8669 81.6833 87.1862 81.9596 86.3035 81.8318C85.7755 81.7534 85.4249 81.3533 85.264 80.6561C85.1567 80.1983 85.1939 79.7321 85.1939 79.2701V30.5539C85.1939 30.3146 85.1774 30.0754 85.1485 29.8361C84.9257 28.1201 84.0595 26.7878 82.6941 25.7648C81.9678 25.1953 81.1291 24.7863 80.2332 24.5644C79.3374 24.3426 78.4047 24.3131 77.4966 24.4778C75.8071 24.7625 74.2783 25.6508 73.1942 26.9775C72.422 27.8672 71.9639 28.9862 71.8907 30.162C71.8371 31.0365 71.8495 31.9151 71.7959 32.7938C71.734 33.7796 71.7505 34.7738 71.7134 35.7638C71.6597 37.1209 71.635 38.478 71.5896 39.8351C71.5236 41.8316 71.4452 43.824 71.4081 45.8205C71.3751 47.4664 71.3009 49.1081 71.2266 50.7499C71.1565 52.3133 71.1029 53.8766 71.0286 55.44C70.9667 56.7806 71.0245 58.1213 70.9379 59.466C70.8512 60.8355 70.9296 62.2133 70.843 63.5869C70.7564 64.9564 70.8347 66.3341 70.7481 67.7078C70.6615 69.0443 70.7399 70.389 70.6532 71.7296C70.5666 73.0991 70.5914 74.4769 70.5666 75.8505C70.5254 78.1028 70.4016 80.355 70.4346 82.6073C70.4387 83.0239 70.4181 83.4405 70.3397 83.8489C70.0345 85.4535 68.5907 86.0351 67.2872 85.5319C66.3179 85.1606 65.8847 84.3645 65.8394 83.3539C65.8071 82.6529 65.7809 81.9516 65.761 81.2501C65.6991 79.365 65.629 77.484 65.563 75.603L65.3732 70.1456C65.3072 68.2481 65.2701 66.3465 65.1711 64.449C65.1257 63.5704 65.1257 62.6918 65.0886 61.8173C65.0102 59.9528 64.9566 58.0841 64.8906 56.2155C64.8246 54.3964 64.7545 52.5773 64.705 50.7581C64.6679 49.368 64.5977 47.982 64.573 46.5919C64.5441 44.9336 64.4534 43.2713 64.3956 41.613C64.375 40.9736 64.3709 40.3384 64.3131 39.699C64.2163 38.5163 63.8554 37.3703 63.2571 36.3454C62.7381 35.4374 61.9654 34.7005 61.0337 34.2251C60.0558 33.7367 58.9641 33.5215 57.874 33.6023C56.9111 33.6412 55.974 33.9251 55.1515 34.4273C53.7737 35.2729 52.9405 36.5228 52.495 38.049C52.2286 39.0193 52.1254 40.0272 52.1897 41.0314C52.2681 42.5783 52.198 44.1293 52.2887 45.6803C52.3754 47.1158 52.297 48.5554 52.3795 49.9909C52.4702 51.5213 52.3877 53.0558 52.4785 54.5903C52.5651 56.0546 52.4867 57.5273 52.5734 58.9958C52.66 60.5096 52.5857 62.0276 52.6724 63.5456C52.7549 64.9976 52.6806 66.4496 52.7631 67.9058C52.8539 69.4196 52.7755 70.9376 52.8621 72.4556C52.9487 73.9076 52.8704 75.3596 52.9529 76.8158C53.0395 78.3461 52.9652 79.8806 53.0519 81.4151C53.1344 82.8506 53.0601 84.2903 53.1426 85.7258C53.2292 87.2726 53.155 88.8236 53.2457 90.3705C53.3282 91.7895 53.2787 93.2126 53.3282 94.6358C53.3942 96.4549 53.386 98.2781 53.4479 100.097C53.485 101.232 53.5015 102.366 53.518 103.496C53.551 106.004 53.6789 108.512 53.6541 111.02C53.6633 111.512 53.5098 111.994 53.2175 112.39C52.9251 112.786 52.5102 113.074 52.0371 113.211C50.6552 113.652 49.1084 112.637 49.0506 111.21C49.0176 110.459 48.9722 109.713 48.9516 108.962C48.9145 107.621 48.9434 106.281 48.8732 104.936C48.7866 103.294 48.8526 101.648 48.766 100.002C48.7124 99.0124 48.7495 98.0224 48.7371 97.0283C48.7247 96.4178 48.6216 95.8196 48.6546 95.1803ZM154.337 32.6288C154.222 33.33 153.656 33.6848 153.178 34.0931C152.011 35.0873 150.835 36.0731 149.663 37.059C149.494 37.2046 149.318 37.3422 149.135 37.4715C148.939 37.6124 148.708 37.6965 148.467 37.7147C148.226 37.7329 147.985 37.6844 147.77 37.5746C147.296 37.3601 147.155 36.9435 147.143 36.4733C147.127 35.8669 147.139 35.2605 147.131 34.65C147.127 34.1303 147.077 34.0808 146.541 34.0808H140.498C139.994 34.0808 139.957 34.1179 139.957 34.6335V40.9159C139.957 41.3985 140.003 41.4356 140.477 41.4439C141.083 41.4521 141.694 41.4315 142.3 41.4604C143.002 41.4893 143.398 41.8564 143.53 42.5164C143.562 42.6819 143.555 42.8528 143.51 43.0153C143.465 43.1779 143.383 43.3276 143.27 43.4528C142.841 43.989 142.403 44.517 141.962 45.045L139.726 47.7345C139.512 47.9944 139.297 48.2543 139.025 48.4523C138.711 48.6659 138.33 48.7582 137.953 48.7119C137.576 48.6656 137.228 48.4839 136.975 48.2006C136.558 47.7593 136.187 47.2808 135.795 46.8146C134.983 45.8494 134.166 44.8883 133.357 43.9189C133.208 43.7524 133.075 43.5714 132.961 43.3785C132.466 42.4793 132.961 41.5429 133.98 41.4604C134.426 41.4233 134.875 41.4439 135.321 41.4439C136.113 41.4398 136.117 41.4439 136.117 40.6601V34.5716C136.1 34.1344 136.063 34.0849 135.605 34.0849H129.517C129.071 34.0849 129.026 34.1385 129.018 34.584C129.01 35.0171 129.014 35.4461 129.018 35.8793C129.022 36.135 128.96 36.3866 128.948 36.6424C128.911 37.356 127.921 37.9046 127.228 37.3931C126.687 36.9971 126.188 36.5475 125.668 36.1226C124.616 35.2646 123.581 34.386 122.533 33.5239C121.613 32.769 121.622 31.614 122.537 30.8509C123.948 29.6711 125.342 28.479 126.741 27.291C127.162 26.9321 127.615 26.7053 128.189 26.8868C128.593 27.0105 128.845 27.2621 128.927 27.6829C128.985 27.9799 129.022 28.281 129.018 28.5863C129.014 29.0029 129.01 29.4195 129.022 29.832C129.034 30.162 129.092 30.2115 129.426 30.2363L129.665 30.2404H135.465L135.754 30.2363C135.985 30.2363 136.113 30.1249 136.113 29.8856L136.117 29.5515V23.6528C136.117 23.5414 136.121 23.43 136.113 23.3186C136.084 23.0258 136.03 22.9598 135.725 22.9515C135.293 22.9378 134.862 22.9364 134.43 22.9474C134.126 22.9503 133.823 22.9199 133.526 22.8566C132.734 22.6834 132.388 21.8419 132.866 21.1901C133.262 20.6498 133.704 20.1424 134.133 19.6268C135.02 18.5543 135.907 17.4859 136.798 16.4216C136.941 16.2438 137.121 16.0987 137.326 15.9961C137.53 15.8935 137.754 15.8358 137.983 15.8268C138.211 15.8178 138.439 15.8578 138.651 15.944C138.863 16.0302 139.053 16.1607 139.211 16.3268C139.842 17.0033 140.423 17.7293 141.022 18.4346C141.682 19.2143 142.337 19.998 143.002 20.7735C143.274 21.0911 143.439 21.4335 143.41 21.8625C143.369 22.4194 143.096 22.7411 142.548 22.8649C141.995 22.9886 141.434 22.9474 140.877 22.9515C139.908 22.9556 139.961 22.8938 139.961 23.859V29.469C139.961 29.5969 139.957 29.7248 139.966 29.8526C139.99 30.1744 140.04 30.2239 140.378 30.2445L140.617 30.2486H146.467C146.561 30.2486 146.66 30.2528 146.755 30.2445C147.056 30.2198 147.118 30.1703 147.131 29.865C147.147 29.403 147.135 28.9369 147.139 28.4749C147.143 28.2851 147.143 28.0871 147.184 27.9015C147.37 27.0559 148.319 26.6723 149.012 27.1961C149.775 27.7736 150.497 28.4048 151.235 29.0153C151.936 29.5969 152.625 30.195 153.339 30.756C153.817 31.1314 154.217 31.5398 154.333 32.1626L154.337 32.6288Z" fill="#DC6A00"/>
</svg>
