<svg width="137" height="137" viewBox="0 0 137 137" fill="none" xmlns="http://www.w3.org/2000/svg">
<path d="M122.795 30.6452C119.824 26.5951 115.679 21.8515 111.133 17.3048C106.586 12.7581 101.842 8.61387 97.7923 5.64269C90.8909 0.58225 87.543 0 85.625 0H19.2656C13.3661 0 8.5625 4.80356 8.5625 10.7031V126.297C8.5625 132.196 13.3661 137 19.2656 137H117.734C123.634 137 128.438 132.196 128.438 126.297V42.8125C128.438 40.8945 127.855 37.5466 122.795 30.6452ZM105.07 23.3671C109.18 27.4771 112.4 31.1761 114.78 34.25H94.1789V13.6572C97.2529 16.0376 100.969 19.2571 105.07 23.3671ZM119.875 126.297C119.875 127.461 118.899 128.438 117.734 128.438H19.2656C18.7 128.431 18.1594 128.203 17.7593 127.803C17.3593 127.403 17.1317 126.863 17.125 126.297V10.7031C17.125 9.54719 18.1097 8.5625 19.2656 8.5625H85.625V38.5312C85.625 39.6667 86.0761 40.7557 86.8789 41.5586C87.6818 42.3614 88.7708 42.8125 89.9062 42.8125H119.875V126.297Z" fill="#DC6A00"/>
</svg>
