<svg width="24" height="24" viewBox="0 0 24 24" fill="none" xmlns="http://www.w3.org/2000/svg">
<path d="M15.56 10.81L13.21 13.83L11.65 11.95C11.6024 11.8922 11.5424 11.8458 11.4745 11.8143C11.4066 11.7828 11.3325 11.7669 11.2576 11.7679C11.1827 11.7688 11.109 11.7866 11.0419 11.8198C10.9749 11.8531 10.9161 11.901 10.87 11.96L9.13 14.19C9.07188 14.2635 9.03561 14.3519 9.02532 14.4451C9.01503 14.5383 9.03113 14.6325 9.0718 14.7169C9.11246 14.8014 9.17604 14.8727 9.25529 14.9227C9.33454 14.9728 9.42627 14.9996 9.52 15H18.5C18.5929 15 18.6839 14.9741 18.7629 14.9253C18.8419 14.8765 18.9057 14.8067 18.9472 14.7236C18.9887 14.6406 19.0063 14.5476 18.998 14.4551C18.9896 14.3626 18.9557 14.2743 18.9 14.2L16.35 10.81C16.3035 10.7494 16.2437 10.7004 16.1752 10.6666C16.1067 10.6328 16.0314 10.6153 15.955 10.6153C15.8786 10.6153 15.8033 10.6328 15.7348 10.6666C15.6663 10.7004 15.6065 10.7494 15.56 10.81ZM2 5C1.45 5 1 5.45 1 6V21C1 22.1 1.9 23 3 23H18C18.55 23 19 22.55 19 22C19 21.45 18.55 21 18 21H4C3.45 21 3 20.55 3 20V6C3 5.45 2.55 5 2 5ZM21 1H7C5.9 1 5 1.9 5 3V17C5 18.1 5.9 19 7 19H21C22.1 19 23 18.1 23 17V3C23 1.9 22.1 1 21 1ZM20 17H8C7.45 17 7 16.55 7 16V4C7 3.45 7.45 3 8 3H20C20.55 3 21 3.45 21 4V16C21 16.55 20.55 17 20 17Z" fill="white"/>
</svg>
