<svg width="45" height="45" viewBox="0 0 45 45" fill="none" xmlns="http://www.w3.org/2000/svg">
<g clip-path="url(#clip0_5_313)">
<path d="M20.9999 0V45H23.9999V0H20.9999ZM13.8449 9.039C14.1739 9.11675 14.467 9.30335 14.6767 9.56854C14.8863 9.83372 15.0002 10.162 14.9999 10.5V34.5C14.9999 34.8978 14.8419 35.2794 14.5606 35.5607C14.2793 35.842 13.8978 36 13.4999 36H1.49995C1.24416 36 0.992617 35.9346 0.769232 35.81C0.545848 35.6853 0.358043 35.5057 0.223664 35.288C0.0892855 35.0704 0.0127983 34.822 0.00147154 34.5664C-0.00985519 34.3109 0.0443549 34.0567 0.15895 33.828L12.1589 9.828C12.3101 9.52583 12.5588 9.28353 12.8648 9.14033C13.1708 8.99713 13.5161 8.96143 13.8449 9.039ZM31.1549 9.039C31.4838 8.96143 31.8291 8.99713 32.1351 9.14033C32.4411 9.28353 32.6898 9.52583 32.8409 9.828L44.8409 33.828C44.9555 34.0567 45.0098 34.3109 44.9984 34.5664C44.9871 34.822 44.9106 35.0704 44.7762 35.288C44.6419 35.5057 44.454 35.6853 44.2307 35.81C44.0073 35.9346 43.7557 36 43.4999 36H31.4999C31.1021 36 30.7206 35.842 30.4393 35.5607C30.158 35.2794 29.9999 34.8978 29.9999 34.5V10.5C29.9997 10.162 30.1136 9.83372 30.3232 9.56854C30.5329 9.30335 30.826 9.11675 31.1549 9.039Z" fill="#DC6A00"/>
</g>
<defs>
<clipPath id="clip0_5_313">
<rect width="45" height="45" fill="white"/>
</clipPath>
</defs>
</svg>
