<svg width="45" height="45" viewBox="0 0 45 45" fill="none" xmlns="http://www.w3.org/2000/svg">
<g clip-path="url(#clip0_5_315)">
<path d="M9.711 0.224647C9.92866 0.089891 10.1772 0.0130811 10.4329 0.00152844C10.6886 -0.0100242 10.9431 0.0440648 11.172 0.158647L35.172 12.1586C35.474 12.31 35.716 12.5588 35.859 12.8649C36.0019 13.1709 36.0374 13.5162 35.9596 13.8449C35.8819 14.1736 35.6955 14.4665 35.4306 14.676C35.1657 14.8856 34.8378 14.9996 34.5 14.9996H10.5C10.1022 14.9996 9.72064 14.8416 9.43934 14.5603C9.15804 14.279 9 13.8975 9 13.4996V1.49965C9.00012 1.24417 9.0655 0.99295 9.18993 0.769817C9.31436 0.546684 9.49372 0.359031 9.711 0.224647ZM0 23.9996H45V20.9996H0V23.9996ZM10.5 29.9997C10.1022 29.9997 9.72064 30.1577 9.43934 30.439C9.15804 30.7203 9 31.1018 9 31.4997V43.4997C9.00001 43.7554 9.06543 44.007 9.19005 44.2304C9.31466 44.4538 9.49433 44.6416 9.71199 44.7759C9.92964 44.9103 10.178 44.9868 10.4336 44.9981C10.6891 45.0095 10.9433 44.9552 11.172 44.8407L35.172 32.8406C35.474 32.6893 35.716 32.4405 35.859 32.1344C36.0019 31.8284 36.0374 31.4831 35.9596 31.1544C35.8819 30.8257 35.6955 30.5328 35.4306 30.3233C35.1657 30.1137 34.8378 29.9997 34.5 29.9997H10.5Z" fill="#DC6A00"/>
</g>
<defs>
<clipPath id="clip0_5_315">
<rect width="45" height="45" fill="white"/>
</clipPath>
</defs>
</svg>
