<svg width="45" height="45" viewBox="0 0 45 45" fill="none" xmlns="http://www.w3.org/2000/svg">
<path d="M22.5 3.75C12.1613 3.75 3.75 12.1613 3.75 22.5C3.75 32.8387 12.1613 41.25 22.5 41.25C32.8387 41.25 41.25 32.8387 41.25 22.5C41.25 12.1613 32.8387 3.75 22.5 3.75ZM20.625 20.625H7.62937C7.79015 19.338 8.11791 18.0774 8.60438 16.875H20.625V20.625ZM20.625 28.125H8.60438C8.11791 26.9226 7.79015 25.662 7.62937 24.375H20.625V28.125ZM20.625 7.62937V13.125H10.8094C13.2439 10.0885 16.7638 8.11778 20.625 7.62937ZM10.8094 31.875H20.625V37.3706C16.7638 36.8822 13.2439 34.9115 10.8094 31.875Z" fill="#DC6A00"/>
</svg>
