<svg width="45" height="45" viewBox="0 0 45 45" fill="none" xmlns="http://www.w3.org/2000/svg">
<path d="M22.5 35.625H37.5V13.125H22.5V15.9375C20.1563 15.9375 18.1638 16.7581 16.5225 18.3994C14.8813 20.0406 14.0613 22.0325 14.0625 24.375C14.0625 26.7188 14.8831 28.7113 16.5244 30.3525C18.1656 31.9938 20.1575 32.8138 22.5 32.8125V35.625ZM22.5 32.8125V29.0625C23.8125 29.0625 24.9219 28.6094 25.8281 27.7031C26.7344 26.7969 27.1875 25.6875 27.1875 24.375C27.1875 23.0625 26.7344 21.9531 25.8281 21.0469C24.9219 20.1406 23.8125 19.6875 22.5 19.6875V15.9375C24.8438 15.9375 26.8363 16.7581 28.4775 18.3994C30.1188 20.0406 30.9388 22.0325 30.9375 24.375C30.9375 26.7188 30.1169 28.7113 28.4756 30.3525C26.8344 31.9938 24.8425 32.8138 22.5 32.8125ZM22.5 29.0625C21.1875 29.0625 20.0781 28.6094 19.1719 27.7031C18.2656 26.7969 17.8125 25.6875 17.8125 24.375C17.8125 23.0625 18.2656 21.9531 19.1719 21.0469C20.0781 20.1406 21.1875 19.6875 22.5 19.6875V29.0625ZM7.5 39.375C6.46875 39.375 5.58563 39.0075 4.85063 38.2725C4.11563 37.5375 3.74875 36.655 3.75 35.625V13.125C3.75 12.0938 4.1175 11.2106 4.8525 10.4756C5.5875 9.74064 6.47 9.37376 7.5 9.37501H13.4063L15.75 6.84376C16.0938 6.43751 16.5081 6.13251 16.9931 5.92876C17.4781 5.72501 17.985 5.62376 18.5138 5.62501H26.4825C27.0138 5.62501 27.5219 5.72689 28.0069 5.93064C28.4919 6.13439 28.9056 6.43876 29.2481 6.84376L31.5938 9.37501H37.5C38.5313 9.37501 39.4144 9.74251 40.1494 10.4775C40.8844 11.2125 41.2513 12.095 41.25 13.125V35.625C41.25 36.6563 40.8825 37.5394 40.1475 38.2744C39.4125 39.0094 38.53 39.3763 37.5 39.375H7.5Z" fill="#DC6A00"/>
</svg>
