<svg width="45" height="45" viewBox="0 0 45 45" fill="none" xmlns="http://www.w3.org/2000/svg">
<path d="M4.82129 22.5C4.82129 12.7366 12.7365 4.82144 22.4999 4.82144C25.7527 4.82144 28.7999 5.70055 31.4179 7.23216H22.4999V8.8393H33.7225C34.6016 9.56251 35.4116 10.3709 36.1381 11.25H22.4999V12.8572H37.3193C37.8175 13.6222 38.2595 14.4273 38.6372 15.2679H22.4999V16.875H39.264C39.5259 17.6561 39.7349 18.4613 39.8875 19.2857H22.4999V20.8929H40.1061C40.1783 21.6943 40.1966 22.4997 40.1608 23.3036H22.4999V24.9107H40.0161C39.9036 25.7336 39.7349 26.5388 39.5131 27.3214H22.4999V28.9286H38.9731C38.6468 29.7643 38.2579 30.5711 37.8127 31.3393H22.4999V32.9464H36.7633C36.1268 33.8143 35.4133 34.6211 34.6338 35.3572H22.4999V36.9643H32.6666C29.6917 39.0613 26.1396 40.1843 22.4999 40.1786C12.7365 40.1786 4.82129 32.2634 4.82129 22.5Z" fill="#DC6A00"/>
</svg>
