<svg width="32" height="32" viewBox="0 0 32 32" fill="none" xmlns="http://www.w3.org/2000/svg">
<path d="M20.733 7.40001L14.6663 1.33334V5.42668C9.41301 6.08001 5.33301 10.56 5.33301 16C5.33301 21.44 9.39967 25.92 14.6663 26.5733V23.88C10.8797 23.24 7.99967 19.96 7.99967 16C7.99967 12.04 10.8797 8.76001 14.6663 8.12001V13.3333L20.733 7.40001ZM26.573 14.6667C26.3355 12.7742 25.589 10.9817 24.413 9.48001L22.5197 11.3733C23.2397 12.3733 23.693 13.5067 23.8797 14.6667H26.573ZM17.333 23.8667V26.56C19.1863 26.3333 20.9863 25.6133 22.533 24.4133L20.613 22.4933C19.613 23.2133 18.493 23.68 17.333 23.8667ZM22.5197 20.64L24.413 22.52C25.613 20.9733 26.3463 19.1867 26.573 17.3333H23.8797C23.693 18.4933 23.2397 19.6267 22.5197 20.64Z" fill="white"/>
</svg>
