<svg width="42" height="42" viewBox="0 0 42 42" fill="none" xmlns="http://www.w3.org/2000/svg">
<path d="M33.5854 2.90848C34.341 2.3265 35.2827 2.03943 36.2345 2.10087C37.1863 2.16232 38.0832 2.56807 38.7578 3.24238C39.4324 3.91669 39.8385 4.81345 39.9003 5.76525C39.9621 6.71704 39.6754 7.65879 39.0937 8.41468L30.6307 19.4817C28.2484 22.5966 25.2109 25.1502 21.733 26.9619C21.3029 25.3565 20.4578 23.8926 19.2826 22.7174C18.1074 21.5422 16.6435 20.6971 15.0382 20.2671C16.8502 16.7899 19.4037 13.7532 22.5184 11.3715L33.5854 2.90848ZM12.6001 23.1C10.9292 23.1 9.32677 23.7637 8.14529 24.9452C6.96381 26.1267 6.30007 27.7291 6.30007 29.4C6.30042 29.5784 6.2553 29.754 6.16895 29.9102C6.08261 30.0663 5.95789 30.1979 5.80657 30.2925C5.65525 30.3871 5.48232 30.4415 5.30412 30.4507C5.12591 30.4599 4.94831 30.4235 4.78807 30.345C4.5058 30.2063 4.18849 30.1553 3.87699 30.1985C3.56549 30.2418 3.27406 30.3773 3.04025 30.5876C2.80643 30.7979 2.64094 31.0734 2.56507 31.3786C2.4892 31.6838 2.50644 32.0048 2.61457 32.3001C3.29639 34.1495 4.60673 35.7003 6.31638 36.6813C8.02603 37.6623 10.0262 38.011 11.9669 37.6664C13.9076 37.3218 15.6655 36.3058 16.9329 34.7962C18.2003 33.2866 18.8966 31.3795 18.9001 29.4084V29.4C18.898 28.2295 18.571 27.0826 17.9555 26.0871C17.34 25.0915 16.4602 24.2864 15.4141 23.7615C14.5403 23.3251 13.5767 23.0986 12.6001 23.1Z" fill="#DC6A00"/>
</svg>
