<svg width="24" height="24" viewBox="0 0 24 24" fill="none" xmlns="http://www.w3.org/2000/svg">
<g clip-path="url(#clip0_123_16)">
<path d="M16.5 19.5H0V9H16.5V19.5ZM15 10.5H1.5V18H15V10.5ZM1.5 7.5H0V6H1.5V7.5ZM1.5 4.5H0V3H1.5V4.5ZM1.5 1.5H0V0H1.5V1.5ZM10.5 1.5H9V0H10.5V1.5ZM4.5 1.5H3V0H4.5V1.5ZM7.5 1.5H6V0H7.5V1.5ZM10.5 4.5H9V3H10.5V4.5ZM10.5 7.5H9V6H10.5V7.5ZM19.0664 1.5C19.8633 2.29688 20.5664 3.06641 21.1758 3.80859C21.7852 4.55078 22.3008 5.33203 22.7227 6.15234C23.1445 6.97266 23.4609 7.85547 23.6719 8.80078C23.8828 9.74609 23.9922 10.8125 24 12C24 13.1016 23.8594 14.1641 23.5781 15.1875C23.2969 16.2109 22.8945 17.168 22.3711 18.0586C21.8477 18.9492 21.2227 19.7578 20.4961 20.4844C19.7695 21.2109 18.957 21.8359 18.0586 22.3594C17.1602 22.8828 16.2031 23.2852 15.1875 23.5664C14.1719 23.8477 13.1094 23.9922 12 24V22.5C12.9609 22.5 13.8867 22.375 14.7773 22.125C15.668 21.875 16.5039 21.5234 17.2852 21.0703C18.0664 20.6172 18.7773 20.0664 19.418 19.418C20.0586 18.7695 20.6055 18.0625 21.0586 17.2969C21.5117 16.5312 21.8672 15.6953 22.125 14.7891C22.3828 13.8828 22.5078 12.9531 22.5 12C22.5 10.9609 22.4023 10.0156 22.207 9.16406C22.0117 8.3125 21.7227 7.51562 21.3398 6.77344C20.957 6.03125 20.4883 5.32031 19.9336 4.64062C19.3789 3.96094 18.7344 3.26953 18 2.56641V6H16.5V0H22.5V1.5H19.0664Z" fill="white"/>
</g>
<defs>
<clipPath id="clip0_123_16">
<rect width="24" height="24" fill="white"/>
</clipPath>
</defs>
</svg>
