<svg width="45" height="45" viewBox="0 0 45 45" fill="none" xmlns="http://www.w3.org/2000/svg">
<path d="M5.625 5.625H9.375V9.375H5.625V5.625ZM5.625 13.125H9.375V16.875H5.625V13.125ZM9.375 20.625H5.625V24.375H9.375V20.625ZM5.625 28.125H9.375V31.875H5.625V28.125ZM9.375 35.625H5.625V39.375H9.375V35.625ZM13.125 35.625H16.875V39.375H13.125V35.625ZM24.375 35.625H20.625V39.375H24.375V35.625ZM28.125 35.625H31.875V39.375H28.125V35.625ZM39.375 35.625H35.625V39.375H39.375V35.625ZM35.625 28.125H39.375V31.875H35.625V28.125ZM31.875 9.375H28.125V5.625H20.625V9.375H28.125V13.125H31.875V16.875H35.625V24.375H39.375V16.875H35.625V13.125H31.875V9.375ZM13.125 5.625H16.875V9.375H13.125V5.625Z" fill="#DC6A00"/>
</svg>
