<svg width="45" height="45" viewBox="0 0 45 45" fill="none" xmlns="http://www.w3.org/2000/svg">
<path d="M5.625 7.48688C5.625 6.45938 6.45938 5.625 7.48688 5.625H37.5131C38.5406 5.625 39.375 6.45938 39.375 7.48688V37.5131C39.3745 38.0068 39.1782 38.4801 38.8291 38.8291C38.4801 39.1782 38.0068 39.3745 37.5131 39.375H7.48688C6.99308 39.375 6.5195 39.1788 6.17033 38.8297C5.82116 38.4805 5.625 38.0069 5.625 37.5131V7.48688ZM11.25 31.875V35.625H33.75V31.875H11.25ZM9.375 9.375V13.125H13.125V9.375H9.375ZM22.5 22.5C21.5054 22.5 20.5516 22.1049 19.8484 21.4016C19.1451 20.6984 18.75 19.7446 18.75 18.75C18.75 17.7554 19.1451 16.8016 19.8484 16.0984C20.5516 15.3951 21.5054 15 22.5 15C23.4946 15 24.4484 15.3951 25.1516 16.0984C25.8549 16.8016 26.25 17.7554 26.25 18.75C26.25 19.7446 25.8549 20.6984 25.1516 21.4016C24.4484 22.1049 23.4946 22.5 22.5 22.5ZM22.5 26.25C24.4891 26.25 26.3968 25.4598 27.8033 24.0533C29.2098 22.6468 30 20.7391 30 18.75C30 16.7609 29.2098 14.8532 27.8033 13.4467C26.3968 12.0402 24.4891 11.25 22.5 11.25C20.5109 11.25 18.6032 12.0402 17.1967 13.4467C15.7902 14.8532 15 16.7609 15 18.75C15 20.7391 15.7902 22.6468 17.1967 24.0533C18.6032 25.4598 20.5109 26.25 22.5 26.25Z" fill="#DC6A00"/>
</svg>
