<svg width="24" height="24" viewBox="0 0 24 24" fill="none" xmlns="http://www.w3.org/2000/svg">
<g clip-path="url(#clip0_5_375)">
<path d="M11 3C11 2.73478 10.8946 2.48043 10.7071 2.29289C10.5196 2.10536 10.2652 2 10 2H5.25C4.38805 2 3.5614 2.34241 2.9519 2.9519C2.34241 3.5614 2 4.38805 2 5.25V10C2 10.2652 2.10536 10.5196 2.29289 10.7071C2.48043 10.8946 2.73478 11 3 11C3.26522 11 3.51957 10.8946 3.70711 10.7071C3.89464 10.5196 4 10.2652 4 10V5.25C4 4.56 4.56 4 5.25 4H10C10.2652 4 10.5196 3.89464 10.7071 3.70711C10.8946 3.51957 11 3.26522 11 3ZM14 2C13.7348 2 13.4804 2.10536 13.2929 2.29289C13.1054 2.48043 13 2.73478 13 3C13 3.26522 13.1054 3.51957 13.2929 3.70711C13.4804 3.89464 13.7348 4 14 4H18.75C19.44 4 20 4.56 20 5.25V10C20 10.2652 20.1054 10.5196 20.2929 10.7071C20.4804 10.8946 20.7348 11 21 11C21.2652 11 21.5196 10.8946 21.7071 10.7071C21.8946 10.5196 22 10.2652 22 10V5.25C22 4.8232 21.9159 4.40059 21.7526 4.00628C21.5893 3.61197 21.3499 3.25369 21.0481 2.9519C20.7463 2.65011 20.388 2.41072 19.9937 2.24739C19.5994 2.08406 19.1768 2 18.75 2H14ZM14 22C13.7348 22 13.4804 21.8946 13.2929 21.7071C13.1054 21.5196 13 21.2652 13 21C13 20.7348 13.1054 20.4804 13.2929 20.2929C13.4804 20.1054 13.7348 20 14 20H18.75C19.44 20 20 19.44 20 18.75V14C20 13.7348 20.1054 13.4804 20.2929 13.2929C20.4804 13.1054 20.7348 13 21 13C21.2652 13 21.5196 13.1054 21.7071 13.2929C21.8946 13.4804 22 13.7348 22 14V18.75C22 19.1768 21.9159 19.5994 21.7526 19.9937C21.5893 20.388 21.3499 20.7463 21.0481 21.0481C20.7463 21.3499 20.388 21.5893 19.9937 21.7526C19.5994 21.9159 19.1768 22 18.75 22H14ZM10 22C10.2652 22 10.5196 21.8946 10.7071 21.7071C10.8946 21.5196 11 21.2652 11 21C11 20.7348 10.8946 20.4804 10.7071 20.2929C10.5196 20.1054 10.2652 20 10 20H5.25C4.56 20 4 19.44 4 18.75V14C4 13.7348 3.89464 13.4804 3.70711 13.2929C3.51957 13.1054 3.26522 13 3 13C2.73478 13 2.48043 13.1054 2.29289 13.2929C2.10536 13.4804 2 13.7348 2 14V18.75C2 19.1768 2.08406 19.5994 2.24739 19.9937C2.41072 20.388 2.65011 20.7463 2.9519 21.0481C3.25369 21.3499 3.61197 21.5893 4.00628 21.7526C4.40059 21.9159 4.8232 22 5.25 22H10Z" fill="white"/>
</g>
<defs>
<clipPath id="clip0_5_375">
<rect width="24" height="24" fill="white"/>
</clipPath>
</defs>
</svg>
