<svg width="45" height="45" viewBox="0 0 45 45" fill="none" xmlns="http://www.w3.org/2000/svg">
<path d="M20.625 5.625C20.625 5.12772 20.4275 4.65081 20.0758 4.29917C19.7242 3.94754 19.2473 3.75 18.75 3.75H9.84375C8.22759 3.75 6.67762 4.39202 5.53482 5.53482C4.39202 6.67762 3.75 8.22759 3.75 9.84375V18.75C3.75 19.2473 3.94754 19.7242 4.29917 20.0758C4.65081 20.4275 5.12772 20.625 5.625 20.625C6.12228 20.625 6.59919 20.4275 6.95083 20.0758C7.30246 19.7242 7.5 19.2473 7.5 18.75V9.84375C7.5 8.55 8.55 7.5 9.84375 7.5H18.75C19.2473 7.5 19.7242 7.30246 20.0758 6.95083C20.4275 6.59919 20.625 6.12228 20.625 5.625ZM26.25 3.75C25.7527 3.75 25.2758 3.94754 24.9242 4.29917C24.5725 4.65081 24.375 5.12772 24.375 5.625C24.375 6.12228 24.5725 6.59919 24.9242 6.95083C25.2758 7.30246 25.7527 7.5 26.25 7.5H35.1562C36.45 7.5 37.5 8.55 37.5 9.84375V18.75C37.5 19.2473 37.6975 19.7242 38.0492 20.0758C38.4008 20.4275 38.8777 20.625 39.375 20.625C39.8723 20.625 40.3492 20.4275 40.7008 20.0758C41.0525 19.7242 41.25 19.2473 41.25 18.75V9.84375C41.25 9.04351 41.0924 8.2511 40.7861 7.51177C40.4799 6.77245 40.031 6.10067 39.4652 5.53482C38.8993 4.96896 38.2276 4.5201 37.4882 4.21386C36.7489 3.90762 35.9565 3.75 35.1562 3.75H26.25ZM26.25 41.25C25.7527 41.25 25.2758 41.0525 24.9242 40.7008C24.5725 40.3492 24.375 39.8723 24.375 39.375C24.375 38.8777 24.5725 38.4008 24.9242 38.0492C25.2758 37.6975 25.7527 37.5 26.25 37.5H35.1562C36.45 37.5 37.5 36.45 37.5 35.1562V26.25C37.5 25.7527 37.6975 25.2758 38.0492 24.9242C38.4008 24.5725 38.8777 24.375 39.375 24.375C39.8723 24.375 40.3492 24.5725 40.7008 24.9242C41.0525 25.2758 41.25 25.7527 41.25 26.25V35.1562C41.25 35.9565 41.0924 36.7489 40.7861 37.4882C40.4799 38.2276 40.031 38.8993 39.4652 39.4652C38.8993 40.031 38.2276 40.4799 37.4882 40.7861C36.7489 41.0924 35.9565 41.25 35.1562 41.25H26.25ZM18.75 41.25C19.2473 41.25 19.7242 41.0525 20.0758 40.7008C20.4275 40.3492 20.625 39.8723 20.625 39.375C20.625 38.8777 20.4275 38.4008 20.0758 38.0492C19.7242 37.6975 19.2473 37.5 18.75 37.5H9.84375C8.55 37.5 7.5 36.45 7.5 35.1562V26.25C7.5 25.7527 7.30246 25.2758 6.95083 24.9242C6.59919 24.5725 6.12228 24.375 5.625 24.375C5.12772 24.375 4.65081 24.5725 4.29917 24.9242C3.94754 25.2758 3.75 25.7527 3.75 26.25V35.1562C3.75 35.9565 3.90762 36.7489 4.21386 37.4882C4.5201 38.2276 4.96896 38.8993 5.53482 39.4652C6.10067 40.031 6.77245 40.4799 7.51177 40.7861C8.2511 41.0924 9.04351 41.25 9.84375 41.25H18.75Z" fill="#DC6A00"/>
</svg>
