<svg width="45" height="45" viewBox="0 0 45 45" fill="none" xmlns="http://www.w3.org/2000/svg">
<path d="M3.84375 5.625V14.0569C3.84375 14.5781 4.2675 15 4.78875 15C5.16375 15 5.50125 14.7769 5.6625 14.4375C7.18647 11.2383 9.58574 8.5364 12.5823 6.64487C15.5789 4.75334 19.0501 3.74962 22.5938 3.75C32.3175 3.75 40.3125 11.1506 41.2519 20.625M41.2519 39.375V30.9431C41.2519 30.693 41.1525 30.4531 40.9756 30.2762C40.7988 30.0994 40.5589 30 40.3088 30C40.1252 30.0022 39.946 30.0561 39.7918 30.1556C39.6375 30.2551 39.5145 30.3962 39.4369 30.5625C37.9125 33.7626 35.5124 36.465 32.5147 38.3566C29.517 40.2482 26.0446 41.2514 22.5 41.25C12.7781 41.25 4.785 33.8494 3.84375 24.375" stroke="#DC6A00" stroke-width="1.5" stroke-linecap="round" stroke-linejoin="round"/>
<path d="M11.25 30.75V17.6138C11.25 17.3154 11.3685 17.0292 11.5795 16.8183C11.7905 16.6073 12.0766 16.4887 12.375 16.4887H14.5744C14.7624 16.4886 14.9475 16.4414 15.1126 16.3513C15.2776 16.2612 15.4175 16.1312 15.5194 15.9731L18.2306 11.7656C18.3325 11.6075 18.4724 11.4775 18.6374 11.3874C18.8025 11.2974 18.9876 11.2501 19.1756 11.25H25.8244C26.0124 11.2501 26.1975 11.2974 26.3626 11.3874C26.5276 11.4775 26.6675 11.6075 26.7694 11.7656L29.4806 15.9731C29.5825 16.1312 29.7224 16.2612 29.8874 16.3513C30.0525 16.4414 30.2376 16.4886 30.4256 16.4887H32.625C32.9234 16.4887 33.2095 16.6073 33.4205 16.8183C33.6315 17.0292 33.75 17.3154 33.75 17.6138V30.75C33.75 30.8977 33.7209 31.044 33.6644 31.1805C33.6078 31.317 33.525 31.441 33.4205 31.5455C33.316 31.65 33.192 31.7328 33.0555 31.7894C32.919 31.8459 32.7727 31.875 32.625 31.875H12.375C12.2273 31.875 12.081 31.8459 11.9445 31.7894C11.808 31.7328 11.684 31.65 11.5795 31.5455C11.475 31.441 11.3922 31.317 11.3356 31.1805C11.2791 31.044 11.25 30.8977 11.25 30.75Z" stroke="#DC6A00" stroke-width="1.5" stroke-linecap="round" stroke-linejoin="round"/>
<path d="M22.5 26.25C23.4946 26.25 24.4484 25.8549 25.1516 25.1516C25.8549 24.4484 26.25 23.4946 26.25 22.5C26.25 21.5054 25.8549 20.5516 25.1516 19.8484C24.4484 19.1451 23.4946 18.75 22.5 18.75C21.5054 18.75 20.5516 19.1451 19.8484 19.8484C19.1451 20.5516 18.75 21.5054 18.75 22.5C18.75 23.4946 19.1451 24.4484 19.8484 25.1516C20.5516 25.8549 21.5054 26.25 22.5 26.25Z" stroke="#DC6A00" stroke-width="1.5" stroke-linecap="round" stroke-linejoin="round"/>
</svg>
