<svg width="45" height="45" viewBox="0 0 45 45" fill="none" xmlns="http://www.w3.org/2000/svg">
<path d="M22.5 0.504364L34.4325 12.4369C36.7925 14.7969 38.3997 17.8037 39.0508 21.0771C39.7019 24.3506 39.3677 27.7436 38.0905 30.827C36.8132 33.9105 34.6503 36.546 31.8752 38.4003C29.1002 40.2545 25.8376 41.2442 22.5 41.2442C19.1625 41.2442 15.8999 40.2545 13.1248 38.4003C10.3497 36.546 8.1868 33.9105 6.90956 30.827C5.63233 27.7436 5.29813 24.3506 5.94924 21.0771C6.60035 17.8037 8.20752 14.7969 10.5675 12.4369L22.5 0.504364ZM22.5 5.80686L13.2188 15.0881C11.3825 16.9241 10.1322 19.2636 9.62594 21.8104C9.11967 24.3572 9.38022 26.997 10.3746 29.3957C11.369 31.7944 13.0526 33.8442 15.2123 35.2858C17.372 36.7274 19.9109 37.496 22.5075 37.4944L22.5 5.80686Z" fill="#DC6A00"/>
</svg>
