<svg width="45" height="45" viewBox="0 0 45 45" fill="none" xmlns="http://www.w3.org/2000/svg">
<path d="M35.625 5.625H9.375C6.72375 5.625 5.39813 5.625 4.575 6.3975C3.75 7.17 3.75 8.415 3.75 10.9031V12.1969C3.75 14.1412 3.75 15.1144 4.2375 15.9206C4.725 16.7269 5.61187 17.2294 7.39125 18.2306L12.8531 21.3056C14.0456 21.9769 14.6438 22.3125 15.0713 22.6837C15.96 23.4544 16.5075 24.3619 16.755 25.4775C16.875 26.01 16.875 26.6362 16.875 27.8869V32.8931C16.875 34.5975 16.875 35.4506 17.3475 36.1144C17.82 36.78 18.66 37.1081 20.3362 37.7644C23.8594 39.1406 25.62 39.8287 26.8725 39.045C28.125 38.2631 28.125 36.4725 28.125 32.8912V27.885C28.125 26.6362 28.125 26.01 28.245 25.4756C28.4805 24.3828 29.0736 23.3997 29.9306 22.6819C30.3563 22.3125 30.9544 21.9769 32.1469 21.3037L37.6088 18.2287C39.3863 17.2294 40.2769 16.7287 40.7625 15.9225C41.25 15.1162 41.25 14.1412 41.25 12.195V10.9012C41.25 8.415 41.25 7.17 40.425 6.3975C39.6037 5.625 38.2781 5.625 35.625 5.625Z" stroke="#DC6A00" stroke-width="1.5"/>
</svg>
