<svg width="45" height="45" viewBox="0 0 45 45" fill="none" xmlns="http://www.w3.org/2000/svg">
<path d="M34.8488 12.0263C35.306 12.4856 35.8748 12.8183 36.4993 12.9915C37.1239 13.1647 37.7827 13.1726 38.4113 13.0144C39.2121 12.8141 39.9245 12.3552 40.4379 11.7088C40.9513 11.0624 41.2371 10.2647 41.2509 9.43928C41.2648 8.6139 41.0059 7.80702 40.5144 7.14378C40.0229 6.48054 39.3263 5.998 38.5327 5.771C37.739 5.544 36.8926 5.58523 36.1247 5.88829C35.3569 6.19135 34.7105 6.7393 34.2858 7.44717C33.8611 8.15504 33.6819 8.98326 33.7758 9.80339C33.8698 10.6235 34.2318 11.3897 34.8056 11.9831L34.8488 12.0263ZM3.75 35.625C3.75 36.6196 4.14509 37.5734 4.84835 38.2767C5.55161 38.9799 6.50544 39.375 7.5 39.375C8.49456 39.375 9.44839 38.9799 10.1517 38.2767C10.8549 37.5734 11.25 36.6196 11.25 35.625C11.25 34.6305 10.8549 33.6766 10.1517 32.9734C9.44839 32.2701 8.49456 31.875 7.5 31.875C6.50544 31.875 5.55161 32.2701 4.84835 32.9734C4.14509 33.6766 3.75 34.6305 3.75 35.625ZM12.3488 12.0263C12.806 12.4856 13.3748 12.8183 13.9993 12.9915C14.6239 13.1647 15.2827 13.1726 15.9113 13.0144C16.7218 12.81 17.4411 12.3411 17.9553 11.682C18.4694 11.0228 18.7491 10.211 18.75 9.37502C18.7503 8.76083 18.5998 8.15595 18.3116 7.61356C18.0234 7.07116 17.6064 6.60785 17.0973 6.26435C16.5881 5.92085 16.0024 5.70767 15.3915 5.64354C14.7807 5.57942 14.1634 5.66631 13.594 5.89659C13.0246 6.12686 12.5205 6.49347 12.126 6.9642C11.7315 7.43492 11.4586 7.99534 11.3313 8.59622C11.2041 9.19709 11.2264 9.82002 11.3963 10.4103C11.5662 11.0005 11.8784 11.54 12.3056 11.9813L12.3488 12.0263ZM11.7375 13.9594L7.15313 30.0094C8.43781 29.9284 9.71116 30.2926 10.7588 31.0406L15.345 14.9906C14.0603 15.0716 12.7851 14.7074 11.7375 13.9594ZM32.1956 11.25H20.3044C20.7339 10.0369 20.7339 8.71312 20.3044 7.50002H32.1956C31.7661 8.71312 31.7661 10.0369 32.1956 11.25ZM21.6019 36.7069C21.8759 35.6072 22.4161 34.5918 23.175 33.75H12.8063C13.2359 34.9631 13.2359 36.287 12.8063 37.5H21.405L21.6038 36.7069H21.6019ZM37.845 14.9888L36.045 21.2963C35.4825 21.5813 34.9575 21.96 34.4869 22.4288L30.7538 26.1619L34.2413 13.9594C35.2883 14.707 36.5609 15.0693 37.845 14.9888ZM35.8125 23.7563L24.7444 34.8244C24.0995 35.4695 23.642 36.2777 23.4206 37.1625L22.5619 40.5956C22.4765 40.9372 22.481 41.2951 22.5751 41.6344C22.6691 41.9737 22.8494 42.2829 23.0985 42.5317C23.3476 42.7806 23.6569 42.9607 23.9962 43.0545C24.3356 43.1483 24.6935 43.1526 25.035 43.0669L28.4663 42.21C29.352 41.9885 30.1609 41.5303 30.8063 40.8844L41.8725 29.8181C42.6558 29.0103 43.09 27.9269 43.0814 26.8017C43.0728 25.6765 42.6221 24.5998 41.8266 23.804C41.0311 23.0083 39.9545 22.5572 38.8293 22.5483C37.7041 22.5394 36.6206 22.9732 35.8125 23.7563Z" fill="#DC6A00"/>
</svg>
