<svg width="50" height="41" viewBox="0 0 50 41" fill="none" xmlns="http://www.w3.org/2000/svg">
<g clip-path="url(#clip0_30_13)">
<path d="M50 4.99258C48.1277 5.82568 46.1417 6.37252 44.1082 6.61493C46.2264 5.33981 47.8527 3.32061 48.6186 0.914752C46.605 2.11491 44.402 2.96049 42.1047 3.41497C40.2334 1.41264 37.5676 0.161255 34.617 0.161255C28.9518 0.161255 24.3586 4.77444 24.3586 10.4642C24.3586 11.2719 24.4494 12.0581 24.6242 12.8124C16.0988 12.3826 8.54023 8.28082 3.48066 2.04725C2.59785 3.56896 2.09199 5.33903 2.09199 7.22699C2.09199 10.8016 3.90313 13.9551 6.65547 15.8029C5.02646 15.7516 3.4333 15.3097 2.00898 14.514C2.0084 14.5572 2.0084 14.6003 2.0084 14.6437C2.0084 19.6357 5.54434 23.8 10.2369 24.7465C8.72634 25.1592 7.14185 25.2196 5.60449 24.9231C6.90977 29.0164 10.6982 31.9951 15.1869 32.0785C11.6762 34.8418 7.25293 36.489 2.44707 36.489C1.61895 36.489 0.802539 36.4402 0 36.345C4.53965 39.2684 9.93164 40.9741 15.7246 40.9741C34.5932 40.9741 44.9109 25.2742 44.9109 11.6591C44.9109 11.2122 44.9012 10.7679 44.8813 10.3261C46.8895 8.86794 48.6229 7.06184 50 4.99258Z" fill="#55ACEE"/>
</g>
<defs>
<clipPath id="clip0_30_13">
<rect width="50" height="41" fill="white"/>
</clipPath>
</defs>
</svg>
