<svg width="40" height="40" viewBox="0 0 40 40" fill="none" xmlns="http://www.w3.org/2000/svg">
<path fill-rule="evenodd" clip-rule="evenodd" d="M18.8218 24.7328C14.1083 26.0844 9.19193 23.3591 7.84037 18.6458C6.48881 13.9325 9.21412 9.01609 13.9274 7.66453C18.6407 6.31296 23.5571 9.03828 24.9087 13.7516C25.5988 16.1583 24.606 19.6894 23.4482 21.7003C23.3522 21.867 32.7001 29.9916 32.7001 29.9916L29.9771 32.7462L21.6155 23.8837C21.6155 23.8837 20.0166 24.3902 18.8218 24.7328ZM16.2499 22.5C19.7016 22.5 22.4999 19.7017 22.4999 16.25C22.4999 12.7983 19.7016 10 16.2499 10C12.7982 10 9.9999 12.7983 9.9999 16.25C9.9999 19.7017 12.7982 22.5 16.2499 22.5Z" fill="white"/>
<path fill-rule="evenodd" clip-rule="evenodd" d="M12.5 15.0131V17.5119H20V15.0131H12.5Z" fill="white"/>
</svg>
